<?xml version="1.0" encoding="UTF-8" standalone="no"?>
<svg
   xmlns:dc="http://purl.org/dc/elements/1.1/"
   xmlns:cc="http://creativecommons.org/ns#"
   xmlns:rdf="http://www.w3.org/1999/02/22-rdf-syntax-ns#"
   xmlns:svg="http://www.w3.org/2000/svg"
   xmlns="http://www.w3.org/2000/svg"
   xmlns:sodipodi="http://sodipodi.sourceforge.net/DTD/sodipodi-0.dtd"
   xmlns:inkscape="http://www.inkscape.org/namespaces/inkscape"
   width="56.8889in"
   height="56.8889in"
   viewBox="0 0 4096 4096"
   version="1.1"
   id="svg20"
   sodipodi:docname="path.svg"
   inkscape:version="0.92.3 (2405546, 2018-03-11)">
  <metadata
     id="metadata26">
    <rdf:RDF>
      <cc:Work
         rdf:about="">
        <dc:format>image/svg+xml</dc:format>
        <dc:type
           rdf:resource="http://purl.org/dc/dcmitype/StillImage" />
      </cc:Work>
    </rdf:RDF>
  </metadata>
  <defs
     id="defs24">
    <inkscape:path-effect
       effect="simplify"
       id="path-effect3732"
       is_visible="true"
       steps="3"
       threshold="0.0005"
       smooth_angles="10"
       helper_size="5"
       simplify_individual_paths="true"
       simplify_just_coalesce="true" />
  </defs>
  <sodipodi:namedview
     pagecolor="#ffffff"
     bordercolor="#666666"
     borderopacity="1"
     objecttolerance="10"
     gridtolerance="10"
     guidetolerance="10"
     inkscape:pageopacity="0"
     inkscape:pageshadow="2"
     inkscape:window-width="1680"
     inkscape:window-height="988"
     id="namedview22"
     showgrid="false"
     inkscape:zoom="0.14614356"
     inkscape:cx="2185.5796"
     inkscape:cy="2696.4869"
     inkscape:window-x="-8"
     inkscape:window-y="-8"
     inkscape:window-maximized="1"
     inkscape:current-layer="svg20" />
  <path
     id="Selection"
     d="m 1084,4096 c 0,0 -83,0 -83,0 -7.3,-0.09 -8.08,-1.53 -12,-1.73 0,0 -12,0.73 -12,0.73 0,0 -605,0 -605,0 0,0 -124,0 -124,0 -3.69,-0.01 -6.70918,0.2787 -10,-1.74 -4.32,-2.65 -6.13,-6.72 -12,-7.11 0,0 -12,0.85 -12,0.85 0,0 -71,0 -71,0 -3.72,-0.05 -10.04135,-1.3452 -13,-0.57 -5,1.31 -7.34374,6.0502 -12,7.83 -5.18,1.98 -19.769929,1.5568 -23.15,-3.39 -2.33,-3.41 -1.907182,-9.8101 -1.85,-13.87 0.16,-11.36 5.49,-9.72 8.26,-17 0,0 0.67,-22 0.67,-22 0,0 0,-143 0,-143 0.06,-6.22 -1.62797,-14.3742 0,-20 1.58,-5.46 5.27563,-7.4222 7.05,-11 1.22,-2.46 1.01,-5.33 0.91,-8 0,0 0,-389 0,-389 0.1,-5.95 -1.19983,-12.4033 0,-18 1.58,-7.37 6.26646,-7.2813 8.13,-13.01 1.08,-3.32 -0.01,-9.97 0,-13.99 0,0 0,-33 0,-33 0.02,-3.13 0.54984,-8.3563 0,-11 -0.99,-4.76 -5.4249,-7.5179 -7.32,-12 -2.52,-5.96 -2.49468,-19.207 3.41,-23.15 3.01,-2.01 7.37752,-1.478 10.89,-1.6 4.03,-0.14 9.26182,0.865 13,0 3.76,-0.87 5.84888,-3.6319 9,-5.53 3.37,-2.03 5.77,-1.75 9,-3.29 0,0 8,-5.3 8,-5.3 0,0 9,-3.26 9,-3.26 0,0 8,-5.3 8,-5.3 0,0 8,-2.73 8,-2.73 0,0 8,-5.27 8,-5.27 0,0 8,-2.72 8,-2.72 0,0 8,-5.17 8,-5.17 0,0 8.99,-3.13 8.99,-3.13 3.96,-2.06 5.27257,-4.9539 9.05,-6.54 5.93,-2.49 9.82,1.3 14.96,-1.19 0,0 7,-5.1 7,-5.1 3.67,-2.31 6.57,-2.03 10,-3.85 0,0 8,-5.3 8,-5.3 0,0 8,-2.56 8,-2.56 0,0 8,-5.33 8,-5.33 0,0 8,-2.75 8,-2.75 0,0 9,-5.77 9,-5.77 0,0 7,-2.16 7,-2.16 0,0 9,-5.7 9,-5.7 0,0 8,-2.73 8,-2.73 0,0 8,-5.3 8,-5.3 0,0 9,-3.25 9,-3.25 0,0 7,-4.93 7,-4.93 0,0 9,-3.24 9,-3.24 0,0 8,-5.17 8,-5.17 0,0 9,-3.13 9,-3.13 0,0 8,-5.24 8,-5.24 0,0 8,-2.62 8,-2.62 0,0 8,-5.39 8,-5.39 0,0 8,-2.86 8,-2.86 0,0 8,-5.36 8,-5.36 0,0 9,-3.24 9,-3.24 0,0 7,-4.84 7,-4.84 3.78,-2.2 5.84,-1.62 9,-3.16 0,0 8,-5.16 8,-5.16 0,0 8,-2.75 8,-2.75 0,0 9,-5.64 9,-5.64 0,0 9,-3.37 9,-3.37 2.99,-1.68 4.71,-3.83 8,-5.22 0,0 7,-2.13 7,-2.13 0,0 8,-5.48 8,-5.48 0,0 9,-3.24 9,-3.24 0,0 8,-5.17 8,-5.17 0,0 8.96,-3.23 8.96,-3.23 0,0 8.08,-5.23 8.08,-5.23 3.4,-1.5 6.79191,-1.2185 9.38,-4.45 1.81,-2.26 1.87767,-5.4011 3.49,-8.73 2.63,-5.43 7.53742,-7.5398 6.97,-15.04 -0.55,-7.27 -5.89131,-8.6894 -8.18,-14.01 -2.71,-6.3 -0.71,-13.36 -0.7,-19.99 0,0 0,-218 0,-218 0,-2.09 0.11309,-5.0574 -0.6,-7 -0.87,-2.37 -2.68094,-4.2191 -4.42,-5.98 -7.95,-8.05 -9.33,-5.59 -18.98,-5.88 0,0 -10,0 -10,0 0,0 -70,0 -70,0 0,0 -15,0.85 -15,0.85 0,0 -19,-1 -19,-1 -6.22,0.09 -12.97429,2.2389 -19,0 -4.71,-1.75 -6.41814,-5.1937 -10,-6.97 -2.44,-1.21 -5.34,-1.01 -8,-0.97 0,0 -80,0 -80,0 -2.93,-0.05 -10.97978,-0.7692 -13.16,0 -4.11,1.45 -6.20421,4.9702 -9.84,7.02 -3.92,2.21 -10.60969,2.2177 -15,1.64 -12.54,-1.65 -11.14777,-8.2001 -11,-18.71 0.16,-11.38 5.16444,-9.8917 8.13,-17 1.31,-3.14 -0.12,-11.75 0,-16 0,0 0,-306 0,-306 -0.12,-4.25 1.15156,-12.7985 0,-16 -2.82,-7.84 -8.06,-4.98 -8.13,-18 0,0 0,-4 0,-4 0.17,-12.43 5.22308,-10.3503 8.12,-18 1.28,-3.38 -0.11,-11.55 0,-16 0,0 0,-15 0,-15 -0.07,-3.39 -0.005,-5.9166 1.89,-8.91 2.5,-3.95 5.80206,-4.7814 6.76,-10.09 0.72,-3.99 -0.43,-7.45 0,-11 0,0 0,-7 0,-7 0,0 0,-13 0,-13 0,0 -0.73,-13 -0.73,-13 -0.69,-17.76 8.93,-10.61 8.96,-27 0,0 0,-20 0,-20 -0.03,-5.36 -1.48127,-10.6902 -0.56,-16 1.48,-8.53 6.20805,-8.8031 8.55,-15 1.13,-2.99 0.02,-10.16 0,-14 0,0 -0.51,-35 -0.51,-35 0.95,-8 5.08948,-9.4003 5.2,-13 0.07,-2.28 -2.224,-4.948 -3.25,-7 -1.66,-3.32 -2.51829,-7.2906 -2.25,-11 0.23,-3.18 0.81615,-9.1344 3.25,-11.28 4.56,-4.02 16.12691,-0.4192 14.64,-12.72 -0.66,-5.46 -2.74069,-12.0169 0,-17 2.09,-3.8 6.06542,-6.0263 7.39,-10 1.55,-4.65 -1.46801,-8.614 0,-13 1.63,-4.87 5.42368,-6.2781 7.37,-10.04 2.68,-5.18 -0.45287,-10.3847 1.21,-14.96 1.69,-4.65 6.39415,-7.4292 8.04,-12 1.75,-4.86 -1.30493,-7.9367 0,-18 1.11,-8.56 6.12303,-8.2622 7.94,-14 1.14,-3.6 -1.05072,-9.3465 0.72,-14 1.64,-4.31 6.02926,-6.8503 7.51,-11 1.62,-4.54 -1.71485,-8.7174 0.92,-14 2.04,-4.09 6.06605,-6.2292 7.38,-11 1.49,-5.41 -1.7109,-11.9029 0,-19 2.16,-8.96 8.28279,-7.4994 8.45,-18 0.05,-3.14 -0.38534,-7.1626 1.02,-10 1.58,-3.19 5.39,-5.86 6.69,-9.72 0,0 0.72,-13.28 0.72,-13.28 1.41,-5.14 5.63963,-6.4459 7.57,-11.04 1.79,-4.26 -0.15936,-11.6805 0,-16.96 0.31,-10.27 6.31499,-9.3887 8.46,-16 1.46,-4.5 -1.63993,-8.1622 0,-13 1.8,-5.31 6.06374,-7.8933 7.76,-12 1.52,-3.68 0.20758,-9.0654 0,-13 -0.67,-12.7 5.10254,-12.8589 7.76,-18.04 1.39,-2.71 0.97851,-6.92 1.02,-9.96 0.15,-10.99 4.99321,-9.4949 7.52,-16 1.41,-3.63 -0.40876,-9.7195 1.22,-14 1.64,-4.31 5.87116,-6.7447 7.5,-11 1.6,-4.18 -1.16883,-13.5161 0,-20 1.48,-8.21 9.1509,-8.0675 8.55,-18 -0.17,-2.81 -0.98951,-5.1483 0,-8 1.44,-4.15 5.83097,-6.6896 7.47,-11 1.81,-4.76 -0.66056,-9.4502 0.92,-14 1.73,-4.98 6.21743,-7.2608 7.75,-12 1.3,-4.02 -0.44878,-7.9893 -0.75,-12 -0.89,-11.85 6.42761,-13.4437 8.78,-20 1.55,-4.32 -1.09976,-9.0599 0.78,-14 1.64,-4.31 6.02926,-6.8503 7.51,-11 1.62,-4.54 -1.7142,-8.7171 0.92,-14 1.81,-3.63 5.89192,-5.9139 7.29,-10 1.81,-5.29 -2.39958,-14.0933 0,-21 1.89,-5.44 6.38972,-7.7501 7.94,-12 1.74,-4.77 -1.31643,-9.5683 0.79,-14 1.54,-3.24 5.23049,-5.8698 6.79,-9 1.39,-2.79 0.97526,-6.9001 1.02,-10 0.17,-11.78 6.42738,-8.9756 8.54,-17 1.19,-4.52 -2.45424,-15.1979 0,-21 1.95,-4.61 6.81257,-7.1169 8.02,-12 1.13,-4.57 -2.00379,-8.327 0.89,-13.99 2.09,-4.09 5.74319,-5.2257 7.06,-9.05 1.67,-4.85 -1.69454,-9.8369 0,-13.96 1.87,-4.55 6.87853,-6.8033 8.18,-12 1.42,-5.67 -2.43222,-12.7033 0,-20 1.82,-5.46 5.5175,-7.4212 7.29,-11 2.1,-4.24 0.0692,-10.5565 1.76,-15 1.64,-4.31 6.04062,-6.7503 7.56,-11 1.33,-3.72 -1.36867,-13.5061 0,-20 1.41,-6.69 5.94559,-8.599 7.93,-14 1.15,-3.13 0.08,-6.79 0,-10 0,0 0,-17 0,-17 -0.18,-4.17 1.31178,-10.4617 0,-14 -1.85,-4.99 -6.38278,-6.7125 -7.78,-13 -1.4,-6.3 0.71686,-15.8484 0,-19 -1.11,-4.88 -5.95192,-7.3931 -7.71,-12 -1.37,-3.59 -0.26449,-9.8514 -1.05,-13 -1.19,-4.77 -6.41868,-7.1765 -7.88,-12 -1.23,-4.06 1.4743,-8.494 0,-13 -1.42,-4.34 -4.8204,-6.3639 -6.96,-10 -1.83,-3.11 -1.60316,-6.4755 -1.63,-10 -0.03,-3.94 1.22747,-9.2124 0,-13 -1.4,-4.32 -6.50249,-6.8908 -7.83,-12 -1.19,-4.58 1.74703,-8.6376 0,-13 -1.69,-4.22 -6.01731,-6.711 -7.65,-11 -1.93,-5.07 1.12783,-9.219 -1.07,-14 -1.54,-3.35 -4.8823,-5.7339 -6.5,-9 -1.58,-3.19 -1.10471,-7.4901 -1.17,-11 -0.21,-11.29 -6.75485,-8.5645 -8.56,-19 -1.05,-6.07 0.9287,-12.2657 0,-17 -0.92,-4.69 -5.54229,-7.1891 -7.43,-12 -2.06,-5.25 1.1447,-8.9718 -0.75,-14 -1.56,-4.14 -5.33872,-5.9606 -7.17,-10.04 -2.46,-5.48 0.76111,-9.4704 -0.84,-13.96 -1.48,-4.15 -5.87534,-6.7018 -7.51,-11 -1.97,-5.18 1.23359,-9.7567 -0.93,-13.94 -3.76,-7.27 -12.78951,-2.2622 -15.92,-10.1 -1.35,-3.38 -0.66355,-7.8319 1.04,-10.96 1.16,-2.13 3.77638,-4.59009 3.74,-7 -0.04,-2.65 -2.95207,-4.80571 -4.08,-8 -1.25,-3.54 0.0611,-9.57675 -1.19,-13 -1.44,-3.94 -5.58437,-6.39828 -7.39,-11 -2.06,-5.25 1.14329,-8.95123 -0.75,-14 -1.29,-3.44 -4.19774,-5.46112 -5.95,-9 -1.53,-3.09 -1.41632,-6.89379 -3.96,-9.49 -3.39,-3.46 -9.4484,-1.82149 -12.61,-5.21 -2.09,-2.24 -1.74,-6.42 -1.55,-9.3 0,0 0,-22 0,-22 -0.8,-5.69 -4.78,-6.72 -7.24,-13 0,0 -2.26,-7 -2.26,-7 0,0 -5.38,-8 -5.38,-8 -1.5,-3.05 -1.18,-5.6 -3.16,-9 0,0 -4.84,-7 -4.84,-7 -1.7,-3.45 -1.24479,-6.83682 -4.01,-11 -3.6,-5.42 -8.75,-7.32 -11.89,-13 0,0 -3.53,-9 -3.53,-9 -1.66,-3.17 -4.09,-5.28 -5.66,-9 0,0 -2.39,-8 -2.39,-8 0,0 -5.52,-8 -5.52,-8 0,0 -2.76,-8 -2.76,-8 0,0 -4.71,-7 -4.71,-7 -1.99,-3.44 -1.91,-6.11 -3.27,-9 0,0 -5.3,-8 -5.3,-8 0,0 -3.25,-9 -3.25,-9 -1.59,-2.97 -3.74945,-4.43025 -5.37,-8 -1.43,-3.15 -1.42294,-6.96691 -4.08,-9.49 -2.38,-2.26 -5.70139,-2.26677 -8.57,-3.5 -4.28,-1.84 -6.5984,-4.58918 -10,-6.07 -3.17,-1.38 -11.71,0.05 -16,0 0,0 -101,0 -101,0 -4.98,0.04 -11.74968,-1.778 -16,0 -6.55,2.74 -6.4407,8.3697 -15,8.96 -8.41,0.58 -8.58268,-4.24698 -13.13,-8.69 -2.18,-2.13 -5.41488,-3.68182 -6.85,-6.31 -0.83,-1.52 -0.97012,-3.21 -0.99,-4.9 -0.11,-9.35 6.23118,-9.29576 8.99,-16.01 1.66,-4.04 0.04,-9.46 0,-13.99 0,0 0,-81 0,-81 0.03,-4.29 1.39984,-10.22526 0,-14 -1.45,-3.91 -4.78972,-5.72484 -6.57,-9.09 -1.64,-3.1 -1.44,-6.52 -1.32,-9.91 0,0 0,-26 0,-26 -0.09,-3.07 0.50984,-8.51852 0,-11 -1.43,-6.96 -8.23055,-7.28996 -9.04,-19 -0.3,-4.34 0.25975,-9.27016 2.63,-13 1.97,-3.1 4.98374,-5.48372 6.28,-9 0.87,-2.36 0.01,-9.76 0,-13 0,0 0,-239 0,-239 0,0 0,-133 0,-133 0.04,-2.92 0.89998,-7.495976 0,-10 -1.47,-4.09 -5.40072,-6.664158 -7.35,-11 -2.63,-5.85 -2.34042,-19.270622 3.46,-23.15 3.11,-2.08 7.3,-1.84 10.89,-1.69 0,0 391,0 391,0 4.19,-0.15 12.86847,0.691763 16,0 4.21,-0.93 5.80054,-4.099135 9.09,-6.16 3.32,-2.08 6.17,-1.98 9.91,-2 0,0 4,0 4,0 10.79,0.13 12.95,3.75 13,14 0,0 0,4 0,4 -0.04,3.36 -0.0685,6.00091 -1.85,9 -3.38,5.69 -7.59,6.05 -6.98,14 0,0 0.83,11 0.83,11 0,0 0,210 0,210 -0.01,3.66 0.25583,7.63384 -1.85,10.83 -1.97,2.99 -6.45168,5.47974 -7.02,9.17 -0.75,4.87 5.85226,7.54221 7.9,12.01 1.98,4.32 -0.52381,7.76718 0,11.99 0.81,6.53 10.34,14.18 15.01,19 0,0 25.79,25.72 25.79,25.72 3.23,3.14 8.18142,9.01627 12.17,10.54 2.67,1.02 9.86006,0.78449 13,0.74 9.88,-0.14 8.22345,-3.26318 15,-6.7 3.49,-1.77 7.51,-1.7 10.96,-4.02 0,0 14.83,-13.94 14.83,-13.94 3.31,-3.12 4.69001,-7.71998 9.23,-9.45 8.66,-3.3 14.35823,5.76322 18.07,7.8 2.77,1.52 5.86,1.3 8.91,1.31 0,0 499,0 499,0 0,0 129,0 129,0 12.75,-0.03 8.9286,-3.79347 17,-7.69 3.19,-1.54 7.5,-1.35248 11,-1.31 14.83,0.18 14.1723,6.83017 14,19 -0.16,11.3 -5.1396,9.5853 -8.04,17 -1.24,3.17 0.03,10.88 0,15 0,0 0,25 0,25 -0.13,12.19 -5.0147,10.11635 -8.03,17 -1.52,3.47 0.06,12.42 0,17 0,0 0,204 0,204 0,0 0,37 0,37 0.02,4.1 -1.4129,10.59077 -0.5,14 1.13,4.22 7.4964,11.21992 11.57,12.9 3.54,1.46 10.64,0.11 15,0 0,0 18,0 18,0 12.21,0.27 10.1471,5.21526 17,8.19 3.11,1.35 11.77,-0.08 16,0 0,0 47,0 47,0 3.02,-0.09 6.2255,-0.31105 9,1.08 3.65,1.83 6.1534,5.26673 10,6.92 3.49,1.5 12.4,-0.08 17,0 0,0 68,0 68,0 3.96,-0.04 10.8527,1.37124 14,0.6 4.04,-0.99 5.7489,-4.05222 10,-6.12 3.68,-1.79 7.11,-1.69 11,-4.27 0,0 33,-32.3 33,-32.3 0,0 38.77,-39 38.77,-39 5,-6.1 1.89,-9.22 7.62,-15.58 0,0 22.61,-22.42 22.61,-22.42 0,0 48,-48 48,-48 3.11,-3.11 11.1806,-10.75967 13.15,-14 2.34,-3.85 2.13,-8.43 5.5,-12.91 0,0 9.93,-10.09 9.93,-10.09 4.34,-5.74 2.63,-10.11 5.27,-13.85 2.52,-3.57 11.0305,-4.28607 15.15,-3.97 11.6,0.89 11.8996,6.15135 18,8.87 2.76,1.23 11.15,-0.04 15,0 0,0 602,0 602,0 0,0 141,0 141,0 4.21,-0.04 11.7131,1.35314 14.99,0 6.03,-2.49 7.3892,-9.71217 17.01,-8.71 9.6,1 9.99,7.78 9.88,15.66 0,0 0,153 0,153 0.11,4.45 -0.9249,12.50609 0,16 1.26,4.76 4.6416,6.11919 6.67,10.04 1.64,3.17 1.44,6.51 1.31,9.96 0,0 0,140 0,140 0.1,3.52 -0.5888,8.99856 0,12 0.82,4.18 4.02,6.4 6.05,10 0,0 3.39,9 3.39,9 0,0 5.85,8 5.85,8 3.55,6.22 -1.5226,11.33542 2.59,18 2.24,3.63 13.4607,14.59871 17.26,16.55 3.68,1.89 7.13,1.5 10.96,4.15 0,0 26.08,25.98 26.08,25.98 6.56,5.36 9.59,3.19 14.95,6.97 0,0 27.05,26.64 27.05,26.64 6.62,5.08 9.11,2.34 14.96,6.99 0,0 26,25.5 26,25.5 5.94,4.89 9.71,2.95 14.72,6.87 0,0 26.28,26.12 26.28,26.12 5.64,4.63 9.24,2.69 14.96,6.88 0,0 26.04,25.96 26.04,25.96 5.75,4.43 9.16,2.77 13.96,6.09 0,0 27.04,26.91 27.04,26.91 5.31,4.11 7.9903,2.7493 12,4.7 6.66,3.24 4.9796,6.5811 15,6.69 2.76,0.03 7.5089,-0.2574 9.96,0.74 5.48,2.23 6.6358,10.3125 4.53,15.26 -1.86,4.37 -5.8693,6.7418 -7.63,11 -1.41,3.41 0.073,11.3938 0,16 -0.17,10.76 -5.2946,9.9557 -7.95,16.01 -1.5,3.42 0.08,12.45 0,16.99 0,0 0,193 0,193 0.08,3.34 0.2814,6.9155 -1.22,10 -1.84,3.78 -5.1876,6.2271 -6.78,10 -1.76,4.17 0.03,11.25 0,16 0,0 0,36 0,36 0.04,4.28 -1.3252,10.3391 -0.68,14 1.29,7.32 7.8832,7.7797 8.68,17 0.28,3.24 0.2653,9.0181 -0.92,12 -1.59,4 -4.9059,6.2791 -4.11,10 0.77,3.6 4.42,5.04 4.79,12 0,0 0,24 0,24 1.04,4.78 4.8939,6.5679 6.88,10.17 1.61,2.92 1.2859,6.5739 1.31,9.83 0.03,4.06 -1.2832,9.2919 0,13 1.36,3.93 5.1605,6.3548 6.97,10 1.38,2.78 1.17,5.98 1.12,9 0,0 0,22 0,22 2.08,5.78 6.97,6.59 8.58,15 0,0 -0.88,24 -0.88,24 0.84,6.82 6.4183,8.1465 8.51,15 1.88,6.16 -0.3207,18.0986 0,25 0.48,10.33 8.49,8.58 8.82,20 0,0 -0.55,15 -0.55,15 1.24,4.73 5.561,7.0636 7.56,12 1.47,3.63 0.7909,12.7471 0.88,17 0.08,3.82 -1.1282,9.7983 0,13 2.53,7.18 7.97,5.59 8.07,17 0,0 0,15 0,15 -0.24,3.13 -1.088,5.8913 0,9 1.82,5.2 6.6959,7.085 8.45,14 1.73,6.82 -1.4397,21.9113 0,27 1.59,5.62 6.9937,7.3529 8.31,14 1.4,7.07 -2.1077,14.7003 0,19.99 1.55,3.89 4.8483,5.2109 6.85,9.05 1.95,3.74 1.214,9.729 1.32,13.96 0.12,4.79 -1.3971,14.246 0,17.96 2.4,6.38 7.96,4.78 8.13,17.04 0,0 -0.56,22 -0.56,22 1.22,4.88 6.0562,7.3953 7.82,12 1.13,2.95 0.69,14.2289 0.69,18 0,3.63 -1.0914,8.8789 0,12 2.14,6.12 8.03,7.14 8.86,17 0,0 -0.81,18 -0.81,18 0.03,15.95 9.3931,10.3105 8.82,26 -0.16,4.38 -1.5929,9.6491 0,13.99 1.31,3.57 4.2083,5.0174 6.17,8.1 2.24,3.52 2,6.93 1.88,10.91 0,0 0,21 0,21 2.82,7.84 8.06,4.98 8.13,18 0,0 -0.56,22 -0.56,22 1.22,4.88 6.0562,7.3953 7.82,12 1.13,2.95 1.0866,14.2327 0.9,18 -0.21,4.24 -1.8494,9.3224 0,13 2.61,5.19 7.8893,7.137 8.66,16 0.46,5.29 -1.8375,11.9971 0,16.99 1.45,3.94 4.6057,5.0121 6.61,9.05 2.05,4.13 1.119,11.2947 1.32,15.96 0.19,4.41 -0.9778,11.0698 0,14.99 1.09,4.37 4.632,5.749 6.8,10.02 2,3.94 1.2493,11.457 1.32,15.99 0.07,4.49 -1.3631,11.0501 0,15 1.37,3.97 5.1445,6.3428 6.96,10 1.38,2.78 1.17,5.98 1.17,9 0,0 -0.56,21 -0.56,21 1.14,4.57 5.386,6.977 7.39,11 2.67,5.36 1.1977,12.3798 0.65,18 -0.84,8.62 6.2033,10.0856 8.52,17.01 1.8,5.38 -0.033,16.36 0,22.99 0.06,12.2 3.8568,8.9464 7.55,16.04 1.64,3.15 1.44,6.52 1.25,9.96 0,0 0,21 0,21 1.01,3.32 4.1952,5.6529 6.19,9 2.08,3.49 1.99,6.11 2.01,10 0,0 -0.57,21 -0.57,21 2.01,7.67 8.2432,6.1827 8.52,18 0.1,4.27 -1.126,12.8723 0,16 2.25,6.25 9.4272,8.4433 8.79,20 -0.29,5.26 -1.838,17.3019 0,22 1.87,4.78 9.5085,10.6312 12.98,15 4.14,5.21 4.6113,16.9307 1.63,22.9 -4.44,8.89 -14.17,2.25 -20.35,5.27 0,0 -8,5.53 -8,5.53 -3.87,1.96 -7.2,1.38 -12,4.87 0,0 -11.09,10.44 -11.09,10.44 -3.17,2.11 -5.91,2.28 -8.91,3.63 0,0 -9,5.68 -9,5.68 0,0 -9,2.99 -9,2.99 -4.51,2.25 -8.9084,8.1494 -13,11.41 -5.17,4.12 -8.7026,2.8661 -13.91,6.41 -4.32,2.94 -7.81,8.78 -13.09,11.78 0,0 -9,3.25 -9,3.25 -3.26,1.67 -5.1398,4.2306 -9,5.84 -3.31,1.38 -5.0375,0.7342 -9,3.15 -5.79,3.53 -8.4225,8.4766 -12.09,11.2 -4.39,3.26 -8.7315,2.6776 -12.91,5.37 -4.78,3.08 -8.1632,8.6153 -12.09,11.31 -5.96,4.09 -8.9565,1.6337 -15.89,8.07 -2.51,2.33 -4.58,4.6 -5.63,7.9 -0.91,2.86 -0.8187,7.0513 -3.11,9.26 -2.22,2.14 -5.4681,1.3949 -9.28,2.89 -3.85,1.51 -8.0354,5.4264 -10.3,8.85 -2.54,3.84 -2.2309,6.5896 -3.69,10 -1.69,3.95 -4.18,5.73 -5.85,9 0,0 -3.25,9 -3.25,9 -3.17,5.49 -9.4,7.92 -12.6,14 0,0 -2.88,9 -2.88,9 0,0 -5.35,8 -5.35,8 0,0 -3.24,9 -3.24,9 0,0 -4.76,7 -4.76,7 0,0 -3.93,10 -3.93,10 -2.69,4.43 -9.8052,9.823 -12.41,14 -2.22,3.56 -1.38,5.89 -3.42,10 0,0 -5.2,8 -5.2,8 0,0 -3.39,9 -3.39,9 0,0 -4.65,7 -4.65,7 0,0 -4.08,10 -4.08,10 -3.47,5.68 -8.3232,7.2818 -11.86,13 -2.27,3.67 -1.9135,5.5926 -3.28,9 -1.54,3.84 -3.69,5.61 -5.42,9 0,0 -3.97,9.91 -3.97,9.91 -2.63,4.3 -8.6367,8.3555 -11.77,13.09 -2.72,4.11 -2.22,7.19 -4.15,11 0,0 -5.24,8 -5.24,8 -1.49,3.06 -1.16,5.34 -3.31,9 0,0 -4.84,7 -4.84,7 0,0 -3.24,9 -3.24,9 0,0 -4.75,7 -4.75,7 -3.39,6.98 2.1471,16.4686 -1.87,24.89 -2.49,5.22 -8.2196,4.1709 -12.3,5.83 -3.64,1.48 -7.9746,5.8931 -9.91,9.28 -1.84,3.22 -1.843,6.1087 -3.08,9 -1.69,3.95 -4.18,5.73 -5.85,9 0,0 -2.73,8 -2.73,8 0,0 -5.27,8 -5.27,8 0,0 -2.73,8 -2.73,8 0,0 -5.3,8 -5.3,8 0,0 -3.25,9 -3.25,9 0,0 -5.2,8 -5.2,8 0,0 -3.13,8.96 -3.13,8.96 0,0 -5.1,7.13 -5.1,7.13 0,0 -2.9,8.91 -2.9,8.91 0,0 -5.39,8 -5.39,8 0,0 -2.73,8 -2.73,8 0,0 -4.71,7 -4.71,7 -2.05,3.41 -1.74,5.76 -3.29,9 0,0 -5.3,8 -5.3,8 0,0 -3.23,9 -3.23,9 0,0 -5.63,9 -5.63,9 -1.46,3.22 -1.17,5.42 -3.27,9 0,0 -4.83,7 -4.83,7 0,0 -2.17,7 -2.17,7 0,0 -5.7,9 -5.7,9 0,0 -3.38,9 -3.38,9 0,0 -4.76,7 -4.76,7 0,0 -2.73,8 -2.73,8 0,0 -5.3,8 -5.3,8 0,0 -3.09,8.96 -3.09,8.96 -1.48,3.22 -3.21,4.42 -4.83,7.13 -2.14,3.58 -2.1629,6.6035 -3.77,9.91 -2.09,4.3 -4.038,4.8871 -7.75,13 -0.97,2.12 -3.5404,6.2027 -1.88,8.4 1.67,2.21 9.4801,1.6391 12.19,1.6 10.39,-0.15 8.7488,-3.9036 15.09,-7.31 3.63,-1.95 7.9101,-1.7375 11.91,-1.69 10.1,0.12 13.8924,2.5897 14,13 0.04,3.87 0.3647,9.5423 -1.31,13 -2.01,4.15 -6.06,6.43 -6.9,11 0,0 0,15 0,15 0,0 0,108 0,108 0.2,4.6 -1.2875,13.4748 0,17 1.45,3.97 5.2245,6.3428 7.04,10 1.38,2.78 1.17,5.98 1.08,9 0,0 0,203 0,203 0.08,4.25 -1.1302,12.7744 0,16 2.26,6.45 8.0537,6.3975 8.91,18 0.2,2.71 -0.2506,5.3417 -0.74,8 -0.44,2.39 -0.8211,4.729 -2.59,6.57 -4.17,4.34 -18.3286,4.0875 -23.49,1.29 -3.69,-2 -6.0002,-5.818 -9.72,-6.78 -1.74,-0.45 -6.22,-0.1 -8.28,0 -3.23,-0.06 -8.1505,-0.4811 -11,0.94 -3.91,1.95 -5.5206,5.3091 -11,7.07 -5.29,1.7 -13.04,-0.08 -19,0 0,0 -52,0 -52,0 -12.79,-0.06 -9.1423,3.8254 -17,7.74 -2.77,1.38 -5.99,1.17 -9,1.08 0,0 -54,0 -54,0 -4.6,0.08 -13.3981,-1.2067 -17,0 -3.97,1.33 -6.3428,5.1045 -10,6.92 -2.78,1.38 -5.98,1.17 -9,1.08 0,0 -55,0 -55,0 -4.25,0.08 -12.7575,-1.0808 -16,0 -3.93,1.31 -6.3548,5.1105 -10,6.92 -2.78,1.38 -5.98,1.17 -9,1.17 0,0 -49,0 -49,0 0,0 -12,-0.74 -12,-0.74 -5.9,0.82 -7.4474,6.8247 -14,8.84 -5.95,1.83 -12.68,-0.09 -19,0 0,0 -40,0 -40,0 0,0 -9,0 -9,0 -3.25,0.03 -7.99,-0.77 -11,0 -4.29,2.11 -6.14,6.26 -12,8.1 0,0 -25,0.8 -25,0.8 0,0 -30,0 -30,0 0,0 -21,-0.85 -21,-0.85 -5.24,0.8 -6.823,4.5318 -11,7 -3.52,2.08 -7.08,1.84 -11,1.85 0,0 -54,0 -54,0 0,0 -13,-0.89 -13,-0.89 -9.37,0.93 -7.37,8.71 -20,8.89 0,0 -24,0 -24,0 0,0 -15,-0.57 -15,-0.57 -4.31,1.13 -6.4604,4.6394 -10,6.83 -2.65,1.64 -7.87,2.56 -11,2.56 -3.13,0 -8.3488,-0.922 -11,-2.56 -3.14,-1.94 -5.5287,-4.7944 -9,-6.32 -3.14,-1.38 -11.75,0.05 -16,0 0,0 -54,0 -54,0 -4.51,0 -10.0063,-1.6933 -13.99,0 -4.07,1.73 -5.595,4.9194 -9.05,6.75 -2.85,1.51 -5.84,1.3 -8.96,1.28 0,0 -353,0 -353,0 -3.68,0.02 -11.2081,-0.9619 -14,0 -4.76,1.64 -6.9318,6.2136 -12,7.6 -5.52,1.51 -11.12,-1.42 -17,2.86 0,0 -35.17,34.92 -35.17,34.92 -5.41,4.18 -9.14,2.21 -14.83,6.88 0,0 -12,11.77 -12,11.77 0,0 -30,30 -30,30 0,0 -16,15.87 -16,15.87 -6.6,5.74 -9.3,3.01 -15,7.43 0,0 -30.16,29.7 -30.16,29.7 0,0 -29.84,29.58 -29.84,29.58 -4.46,3.35 -7.4389,2.8922 -11,4.72 -6.41,3.29 -11.33,9.54 -12,16.7 0,0 -164,0 -164,0 z M 2106.61,973 c 0.39,6.35 5.132,9.45811 6.81,17 0.93,4.18 -0.24,6.41 0,10 0,0 0.58,13 0.58,13 0,0 -0.96,14 -0.96,14 0.25,6.46 1.939,9.2596 -0.89,16 -1.96,4.67 -5.47,6.64 -5.74,11 0,0 1.48,9 1.48,9 0,0 -0.88,11 -0.88,11 0,0 0.86,14 0.86,14 -0.06,4.69 -1.75,4.98 -1.87,12 0,0 0,13 0,13 0,0 -0.82,15 -0.82,15 -0.19,4.47 0.8202,14.8833 0,18 -1.35,5.13 -6.5407,9.78 -6.87,15 -0.2,3.17 1.65,5.17 1.69,13 0,0 0,29 0,29 0,0 -3,25 -3,25 0,0 0,18 0,18 0.02,4.51 1.2428,10.0905 0.53,14 -1.3,7.13 -5.0765,8.4513 -6.79,13 -1.39,3.69 -0.1957,9.3812 -1.17,13 -1.12,4.16 -4.7937,7.1833 -6.8,11 -2.97,5.65 -2.5179,16.3367 3.34,20.07 1.93,1.23 4.6398,1.6823 6.89,1.84 11.84,0.83 13.6965,-5.5487 20,-8.06 2.51,-1 5.34,-0.84 8,-0.85 0,0 62,0.78 62,0.78 4.18,0.21 11.8394,-0.6449 15,0 4.95,1.01 8.782,5.114 13,6.52 4.71,1.57 10.2202,-0.3005 15.99,2.35 3.57,1.64 4.46,3.69 7.18,5.51 0,0 9.83,4.69 9.83,4.69 0,0 12,10.21 12,10.21 5.5,3.92 7.87,3.16 13,6.74 0,0 13,10.59 13,10.59 4.57,3 7.24,2.75 12,6.15 0,0 12,9.82 12,9.82 4.32,2.97 7.17,2.73 12,6.18 0,0 13,10.81 13,10.81 4.06,2.79 7.3375,2.6934 9.77,4.5 6.84,5.08 0.3309,21.6706 15.23,22.13 6.81,0.21 12.33,-0.4 14.39,-7.99 0,0 1.08,-25.99 1.08,-25.99 1.41,-7.31 4.73,-7.97 7.1,-13 0,0 2.87,-8 2.87,-8 1.74,-3.42 3.785,-5.0121 5.43,-9 1.65,-4 1.5115,-7.1988 4.55,-10.91 5.51,-6.73 14.2701,-7.4699 16.94,-10.52 3.02,-3.45 3.5587,-15.3091 1.06,-19.09 -4.19,-6.34 -11.0223,-1.2203 -22.42,-3.97 -8.29,-2 -10.27,-5.35 -16,-8.25 0,0 -8,-3.17 -8,-3.17 0,0 -8,-4.81 -8,-4.81 0,0 -7,-2.63 -7,-2.63 0,0 -10,-6.01 -10,-6.01 0,0 -7,-2.62 -7,-2.62 0,0 -8,-4.09 -8,-4.09 0,0 -7,-2.49 -7,-2.49 0,0 -8,-5.22 -8,-5.22 -3.8,-2.16 -5.84,-1.85 -9,-3.29 0,0 -9,-5.63 -9,-5.63 0,0 -8,-2.86 -8,-2.86 0,0 -8,-5.15 -8,-5.15 0,0 -8,-2.85 -8,-2.85 0,0 -8,-5.28 -8,-5.28 0,0 -8,-2.73 -8,-2.73 0,0 -9,-6.13 -9,-6.13 0,0 -8,-2.98 -8,-2.98 0,0 -9,-5.18 -9,-5.18 0,0 -7,-2.21 -7,-2.21 0,0 -9,-5.63 -9,-5.63 -3.07,-1.46 -5.66,-1.26 -8.99,-3.31 0,0 -17.83,-16.99 -17.83,-16.99 -2.78,-3.14 -6.88,-8.79 -7.37,-13 0,0 0,-12 0,-12 0,0 -1.73,-16 -1.73,-16 0,0 0.87,-11 0.87,-11 -0.44,-8.83 -6.9482,-9.0688 -7.75,-21 -0.25,-3.72 -0.2363,-12.6487 0.91,-16 1.96,-5.73 5.6713,-8.8498 6.54,-14 0.98,-5.81 -3.3121,-11.9076 3,-21 1.68,-2.42 14.2142,-16.9545 16.35,-18.58 4.52,-3.44 7.8841,-2.7165 10.42,-5.72 3.2,-3.79 1.0017,-8.9388 6.4,-16.7 3.13,-4.5 6.7612,-9.4665 12.18,-11.3 5.97,-2.02 13.484,1.9815 16.74,-6.72 1.74,-4.65 0.9622,-12.9609 -2.97,-16.33 -4.05,-3.47 -12.959,-4.439 -21.3,-14.65 -3.39,-4.15 -5.5092,-7.74017 -6.65,-13 -1.13,-5.21 -0.5492,-12.40172 -6.29,-15.17 -8.15,-3.93 -10.44,8.42 -21.53,9.06 0,0 -14,-0.5 -14,-0.5 -4.24,-0.67 -4.9058,-2.35556 -14,-2.9 -4.51,-0.27 -7.1763,1.10775 -12,0 -8.23,-1.89 -12.74,-7.92 -25,-6.06 -6.9,2.8 -7.81,9.74 -7.39,16.57 z M 1212.9,2606 c 0,0 0,-11 0,-11 -0.16,-5.3 -2.3851,-9.9111 -1.47,-14 1.26,-5.63 6.5576,-8.5205 8.09,-16 0.84,-4.1 0.5356,-10.2246 -2.94,-13.11 -1.59,-1.32 -3.5808,-1.7834 -5.58,-2.03 -11.35,-1.4 -15.0953,6.5249 -22,9.24 -2.95,1.16 -10.97,-0.09 -15,0 0,0 -79,0 -79,0 0,0 -9.99,0.54 -9.99,0.54 0,0 -23.01,-0.64 -23.01,-0.64 0,0 -13,-0.92 -13,-0.92 0,0 -12,0.92 -12,0.92 -2.87,0.01 -6.2708,0.202 -8.96,-0.84 -2.71,-1.05 -4.98,-3.5663 -8.03,-3.6 -3.62,-0.04 -4.1478,2.9101 -7.14,3.56 -2.21,0.48 -4.93,-0.7887 -7.87,-0.78 -3.38,0.01 -6.35,1.65 -15,1.66 0,0 -38,0 -38,0 -2.69,-0.01 -5.40841,0.1866 -7.91,-0.98 -2.08,-0.97 -3.82,-3.16 -6.09,-3.16 -2.27,0 -4.01132,2.1872 -6.09,3.16 -2.5,1.17 -5.22,0.97 -7.91,0.98 0,0 -103,0 -103,0 0,0 -14,-1 -14,-1 0,0 -16,1.04 -16,1.04 0,0 -178,0 -178,0 0,0 -140,0 -140,0 -4.76,-0.03 -12.08154,1.258 -16,0 -8.41,-2.7 -8.60025,-9.6449 -21,-9 -8.46,0.44 -10.36481,5.2503 -9.96,12.96 0.44,8.38 5.69297,10.5156 7.91,17 1.33,3.89 0.06,10.42 0,15 0,0 0,41 0,41 0,0 -0.95,16 -0.95,16 0,0 1,19 1,19 0,0 -0.87,10 -0.87,10 0,0 0,18 0,18 -0.07,4.7 1.31311,10.7091 0,15 -1.83,5.98 -10.25011,12.0276 -7.6,23 0.57,2.36 1.67095,4.7887 3.69,6.26 6.34,4.62 10.98067,-3.5088 15.78,-6.12 3.97,-2.16 8.62,-2.13 13,-2.14 0,0 51,0 51,0 3.03,0 6.21154,-0.2131 9,1.17 5.02,2.49 8.1,8.6395 17,8.65 8.47,0.01 13.55195,-5.2802 12.66,-13.82 -1.01,-9.67 -8.68,-11.31 -10.25,-19 0,0 0.59,-14 0.59,-14 0,0 0,-32 0,-32 0,0 1,-18 1,-18 -0.15,-12.77 -4.32148,-16.941 6.18,-27.91 2.92,-3.05 8.57,-7.24 12.82,-7.85 0,0 13,0.72 13,0.72 0,0 11,-0.96 11,-0.96 0,0 116,0 116,0 0,0 13,0.68 13,0.68 2.42,-0.18 4.47075,-0.7975 7,-0.54 6.68,0.68 14.13505,7.3831 17.53,12.86 1.81,2.92 3.74946,6.4599 3.33,10 -1.16,9.79 -11.5394,13.5193 -10.76,25 0.63,9.28 6.58401,11.0349 8.98,18 1.29,3.75 0.26,6.29 0,10 0,0 0,15 0,15 -0.05,5.45 2.07877,14.6096 0.54,19 -2.18,6.22 -14.81507,16.1464 -6.9,26.87 1.86,2.52 4.26042,3.5269 7.28,3.94 12.72,1.74 15.03312,-7.8564 24,-9.92 3.65,-0.84 7.23,0.78 11,0.95 0,0 20.2,0 20.2,0 0,0 13.8,0.98 13.8,0.98 0,0 19,-1.82 19,-1.82 0,0 67,0 67,0 0,0 20,0 20,0 5.45,0.07 13.33,2.84 18,0 13.28925,8.8973 5.71229,-1.8706 14.96,1.35 4.02,1.4 4.86046,6.798 11.04,8.21 4.07,0.93 8.97,-0.7 13,-1.41 0,0 14,0 14,0 4.88,-0.09 8.88657,0.4706 13,3.35 3.7,2.59 6.8525,7.1216 12,6.03 5.8,-1.23 8.76,-8.78 17,-9.68 0,0 18,1.14 18,1.14 0,0 13,-0.84 13,-0.84 6.8,0.96 4.13,3.28 16,0 0.46,1.53 0.8637,3.198 1.71,4.74 5.73,10.44 15.196,-3.0299 18.38,-4.31 3.93,-1.58 6.33,1.7097 10.91,1.15 4.91,-0.6 7.4016,-4.8675 11,-7.13 2.99,-1.88 5.63,-1.59 9,-1.6 0,0 27,-0.68 27,-0.68 0,0 27,0.68 27,0.68 4.54,-0.02 9.7919,-0.8241 14,1.13 4.63,2.15 8.0609,6.9714 15,7.67 8.84,0.89 14.8327,-4.8489 13.49,-13.8 -1.14,-7.6 -5.1276,-6.8019 -8.57,-11.21 -3.03,-3.88 -2.91,-7.17 -2.92,-11.79 0,0 0,-66 0,-66 0,0 0,-32 0,-32 6.45,-2.2 4.34,-6.62 3.9,-12 z m -277.2,47.92 c 3.94,-2.38 1.43372,-9.4967 6.06,-14.79 3.26,-3.73 5.98,-2.85 12.15,-9.17 0,0 7.39,-8.87 7.39,-8.87 0,0 7.7,-7.13 7.7,-7.13 6.72,-6.39 9.95041,-9.278 19.72,-8.77 11.54,0.6 10.43166,5.027 16.37,8.37 4.21,2.37 13.159,2.9577 17.9,9.74 5.69,8.14 -4.7908,22.0762 9.01,23.51 1.54,0.16 4.3938,0.076 6,0 14.63,-0.69 7.7521,-15.1441 11.17,-21.8 2.09,-4.07 14.7631,-13.2766 18.6,-17.31 4.1,-4.31 2.0682,-6.7413 3.99,-9.27 1.52,-2 4.808,-2.6211 7.15,-2.1 3.73,0.83 7.6829,5.9672 10.26,8.67 3.69,3.87 5.7,4.95 9.83,8 2.57,-2 4.05,0.02 5.86,2.13 0,0 11.18,12.87 11.18,12.87 9.74,10.13 9.6549,6.8046 13.57,10.36 4.68,4.25 5.7426,8.987 9.5,12.25 3.04,2.64 6.15,3.05 8.31,5.66 0,0 10.58,21.73 10.58,21.73 -7.23,6.06 -7.91,2.72 -12.83,7.23 0,0 -10.18,11.77 -10.18,11.77 -7.21,7.3 -11.6391,10.2313 -19.99,15.7 -3.39,2.22 -8.1409,6.5719 -12,7.03 -6.15,0.73 -8.5994,-4.8323 -14,-6.3 -4.71,-1.28 -10.65,1.07 -15.83,-2.94 0,0 -14.17,-14.48 -14.17,-14.48 -3.33,-3.25 -8.0227,-6.6489 -9.76,-11.01 -2.43,-6.1 2.6433,-12.9729 -3.47,-18.71 -1.3,-1.22 -2.94,-2.15 -4.77,-2.15 -4.74,0 -6.1558,5.0742 -8.49,7.37 -3.04,2.99 -6.4179,2.4373 -8.12,7.53 -1.26,3.77 -0.5826,9.2187 -3.82,11.97 -2.93,2.49 -7.4758,2.2945 -11.18,6.21 -3.33,3.52 -5.4062,10.8674 -12.39,14.47 -4.73,2.44 -8.69219,0.2842 -14,2.3 -4.45,1.69 -8.23025,5.7722 -11.96,5.36 -5.7,-0.63 -4.43043,-7.8795 -8.46,-11.72 -5.54,-5.28 -18.15599,-7.5754 -22.06,-12.67 -2.82,-3.68 -2.22,-10.74 -3.52,-15.96 0,0 -6,1 -6,1 0,0 -3,4 -3,4 -5.63,-14.66 -3.69,-16.3 0,-30.08 2.05,0.27 5.93,0.94 7.7,0 z M 868.6,2615 c 0.85,4.65 -0.14029,6.8327 0,12 0.12,4.42 1.35011,10.7322 0,15 -1.49,4.71 -5.45656,7.1115 -7.1,10.83 -0.99,2.24 -0.56127,4.8098 -0.52,7.18 0.07,4.02 0.43528,8.3235 -3.21,10.98 -4.94,3.6 -12.19609,1.0464 -17.77,0.98 -5.88,-0.07 -20.92361,3.64 -29.98,0 -10.4,-4.18 -5.19165,-14.4033 -6.99,-18.97 -1.65,-4.19 -6.08188,-6.4639 -8.26,-11.01 -1.95,-4.07 -1.08218,-5.9899 -1.22,-9.99 -0.41,-11.9 -0.55912,-14.8887 10.45,-22.25 10.05,-6.72 18.1405,-3.1613 29,-3.79 7.6,-0.44 7.58,-4.66 13.1,-8.11 10.27,-2.83 20.92,7.3 22.5,17.15 z m 204.4,140 c 6.1204,6.0591 -0.6931,0.4827 0,0 z m -810.32,922 c 1.97,3.97 6.0974,6.5736 7.17,10.91 0.7,2.83 0.15,8.83 0,12.09 0,0 0,51 0,51 0.15,6.41 1.62475,15.096 -3.96,19.49 -4.69,3.69 -9.63,2.18 -14.89,1.68 0,0 -17,0 -17,0 -4.74,-0.11 -10.60538,1.2072 -15,0 -5.06,-1.39 -8.12903,-5.8927 -14,-8.04 -9.87,-3.61 -18.6523,2.0295 -17.9,12.87 0.61,8.79 6.379,10.7741 8.83,18 1.35,3.98 0.08,10.36 0,15 0,0 0,147 0,147 0.12,4.34 1.5873,8.9375 0,13 -2.02,5.17 -14.80771,17.5613 -6.28,27.77 2.08,2.49 4.25977,3.0037 7.35,3.19 12.94,0.78 13.68335,-5.6487 21,-8.24 2.4,-0.85 5.46,-0.72 8,-0.72 0,0 93,0 93,0 0,0 12,0.97 12,0.97 0,0 18,-0.97 18,-0.97 0,0 24,0.54 24,0.54 4.08,-0.11 7.89451,-1.3177 12,0 8.35,2.68 8.17957,9.1822 22,8.42 2.72,-0.15 5.33499,-0.595 7.35,-2.61 2.68,-2.68 2.8131,-6.2019 0.91,-9.35 -2.14,-3.54 -5.76077,-5.2755 -7.36,-10 -1.53,-4.52 -0.29,-7.56 0,-12 0,0 0,-18 0,-18 0.04,-4.39 -1.04614,-9.9958 0,-14 1.45,-5.55 15.25273,-18.2938 6.4,-28.61 -8.65,-10.08 -24.51061,3.9046 -28.26,4.33 -5.2,0.59 -4.64,-6.46 -12.04,-7.57 0,0 -14,0.85 -14,0.85 0,0 -21,-0.57 -21,-0.57 -4.69,-0.22 -9.29154,1.543 -14,0 -5.34,-1.75 -8.56705,-6.4335 -12.42,-10.11 -2.62,-2.5 -7.29088,-5.1594 -8.98,-7.5 -2.1,-2.91 -1.26523,-5.618 -2.49,-8.82 -1.53,-4 -4.47,-5.78 -6.09,-9 0,0 -2.17,-7.99 -2.17,-7.99 -1.89,-4.71 -5.05286,-5.5985 -6.83,-9.05 -1.21,-2.35 -1.01,-5.37 -1.02,-7.96 0,0 -0.85,-18 -0.85,-18 0,0 0,-10 0,-10 0.02,-2.82 -0.21785,-14.8026 0.88,-16.62 1.48,-2.45 5.00934,-3.4147 6.8,-6.56 2.3,-4.04 -0.025,-9.6447 3.67,-13.38 2.75,-2.78 12.51754,-6.4757 16.5,-8.19 6.04,-2.6 9.74338,-5.8565 14,-7.39 2.97,-1.07 10.91,0.13 15,0 0,0 35,0 35,0 5.66,0.13 14.41783,-2.0967 18.96,0.88 7.95,5.21 4.64992,15.52 15.04,15.52 1.43,0 3.607,-0.3808 5,-0.76 1.69,-0.46 3.39184,-1.0877 4.78,-2.2 1.56,-1.25 2.30332,-2.523 3.11,-4.32 5.93,-13.21 -4.05032,-14.7941 -6.96,-23.98 -1.21,-3.82 0.06,-10.47 0,-15 0,0 0,-32 0,-32 0.03,-3.25 -0.41683,-8.2358 0,-11 1.14,-7.56 8.52146,-10.2299 9.03,-20 0.33,-6.34 -1.6473,-14.5983 -9.96,-12.68 -4.42,1.02 -6.85499,5.3603 -11,7.37 -3.96,1.92 -8.76,1.21 -13,1.22 0,0 -26,0 -26,0 0,0 -21,0 -21,0 0,0 -13,-0.88 -13,-0.88 0,0 -12,0.97 -12,0.97 0,0 -19,0 -19,0 -14.25,-0.02 -11.08614,-4.4147 -20,-7.99 -3.64,-1.46 -8.2,-1.16 -12,-0.58 -7.81,3.17 -8.75,12.64 -5.32,19.57 z M 2320,3844 c 0,0 5,-1 5,-1 0,0 -5,1 -5,1 z"
     inkscape:connector-curvature="0"
     style="fill:none;stroke:#000000;stroke-width:1"
     sodipodi:nodetypes="ccccccccccccccccccccccccccccccccccccccccccccccccccccccccccccccccccccccccccccccccccscccccccccccccccccccccccccccccccccccccccccccccccccccccccccccccccccccccccccccccccccccccccccccccccccccccccccccccccccccccccccccccccccccccccccccccccccccccccccccccccccccccccccccccccccccccccccccccccccccccccccccccccccccccccccccccccccccccccccccccscccsccccccccccccccccccccccccccccccccccccccccccccccccccccccccccccccccccccccccccccccccccccccccccccccccccccccccccccccccccccccccccccccccccccccccscccccccccccccccccccccccccccccccccccccccccccccccccccccccccccccccccccccccccccccccccccccccccccccccscccccccccccccccccccscccscccccccccccccccccccccccccccccccccccccccccccccccccccccccccccccccccccccccccccccccccccccccccccccccccccccccccccccccccccccccccccccccccccccccsccccccccccccccccccccccscccccccccccccccccccccccccccccccccccccccccccccccccccccccccccccccccccccccccccccccccccccccsccccccccccccccccccccccccccccccccccccccccccccccccccscccccccccccccccccccccccccccccccccccccccccccccccccccccccccc"
     inkscape:path-effect="#path-effect3732"
     inkscape:original-d="m 1084,4096 h -83 c -7.3,-0.09 -8.08,-1.53 -12,-1.73 L 977,4095 H 372 248 c -3.69,-0.01 -6.71,0.28 -10,-1.74 -4.32,-2.65 -6.13,-6.72 -12,-7.11 l -12,0.85 h -71 c -3.72,-0.05 -10.04,-1.34 -13,-0.57 -5,1.31 -7.34,6.06 -12,7.83 -5.18,1.98 -19.76,1.55 -23.15,-3.39 -2.33,-3.41 -1.9,-9.81 -1.85,-13.87 0.16,-11.36 5.49,-9.72 8.26,-17 l 0.67,-22 v -143 c 0.06,-6.22 -1.87,-14.45 0,-20 1.58,-5.46 5.28,-7.42 7.05,-11 1.22,-2.46 1.01,-5.33 0.91,-8 v -389 c 0.1,-5.95 -1.55,-12.49 0,-18 1.58,-7.37 5.65,-7.52 8.13,-13.01 1.08,-3.32 -0.01,-9.97 0,-13.99 v -33 c 0.02,-3.13 0.97,-8.48 0,-11 -0.99,-4.76 -5.42,-7.52 -7.32,-12 -2.52,-5.96 -2.49,-19.2 3.41,-23.15 3.01,-2.01 7.39,-1.92 10.89,-1.6 4.03,-0.14 9.39,1.3 13,0 3.76,-0.87 5.85,-3.63 9,-5.53 3.37,-2.03 5.77,-1.75 9,-3.29 l 8,-5.3 9,-3.26 8,-5.3 8,-2.73 8,-5.27 8,-2.72 8,-5.17 8.99,-3.13 c 3.96,-2.06 5.27,-4.96 9.05,-6.54 5.93,-2.49 9.82,1.3 14.96,-1.19 l 7,-5.1 c 3.67,-2.31 6.57,-2.03 10,-3.85 l 8,-5.3 8,-2.56 8,-5.33 8,-2.75 9,-5.77 7,-2.16 9,-5.7 8,-2.73 8,-5.3 9,-3.25 7,-4.93 9,-3.24 8,-5.17 9,-3.13 8,-5.24 8,-2.62 8,-5.39 8,-2.86 8,-5.36 9,-3.24 7,-4.84 c 3.78,-2.2 5.84,-1.62 9,-3.16 l 8,-5.16 8,-2.75 9,-5.64 9,-3.37 c 2.99,-1.68 4.71,-3.83 8,-5.22 l 7,-2.13 8,-5.48 9,-3.24 8,-5.17 8.96,-3.23 8.08,-5.23 c 3.4,-1.5 6.79,-1.22 9.38,-4.45 1.81,-2.26 1.88,-5.4 3.49,-8.73 2.63,-5.43 7.54,-7.54 6.97,-15.04 -0.55,-7.27 -5.89,-8.69 -8.18,-14.01 -2.71,-6.3 -0.71,-13.36 -0.7,-19.99 v -218 c 0,-2.09 0.12,-5.06 -0.6,-7 -0.87,-2.37 -2.68,-4.22 -4.42,-5.98 -7.95,-8.05 -9.33,-5.59 -18.98,-5.88 h -10 -70 l -15,0.85 -19,-1 c -6.22,0.09 -12.96,2.2 -19,0 -4.71,-1.75 -6.42,-5.19 -10,-6.97 -2.44,-1.21 -5.34,-1.01 -8,-0.97 h -80 c -2.93,-0.05 -10.93,-0.61 -13.16,0 -4.11,1.45 -6.21,4.96 -9.84,7.02 -3.92,2.21 -10.61,2.22 -15,1.64 -12.54,-1.65 -11.14,-8.2 -11,-18.71 0.16,-11.38 5.53,-9.75 8.13,-17 1.31,-3.14 -0.12,-11.75 0,-16 v -306 c -0.12,-4.25 1.31,-12.86 0,-16 -2.82,-7.84 -8.06,-4.98 -8.13,-18 v -4 c 0.17,-12.43 5.89,-10.13 8.12,-18 1.28,-3.38 -0.11,-11.55 0,-16 v -15 c -0.07,-3.39 -0.01,-5.92 1.89,-8.91 2.5,-3.95 5.81,-4.78 6.76,-10.09 0.72,-3.99 -0.43,-7.45 0,-11 v -7 -13 l -0.73,-13 c -0.69,-17.76 8.93,-10.61 8.96,-27 v -20 c -0.03,-5.36 -1.48,-10.69 -0.56,-16 1.48,-8.53 6.19,-8.81 8.55,-15 1.13,-2.99 0.02,-10.16 0,-14 l -0.51,-35 c 0.95,-8 5.1,-9.4 5.2,-13 0.07,-2.28 -2.22,-4.95 -3.25,-7 -1.66,-3.32 -2.51,-7.29 -2.25,-11 0.23,-3.18 0.82,-9.13 3.25,-11.28 4.56,-4.02 15.35,-0.35 14.64,-12.72 -0.66,-5.46 -2.28,-11.79 0,-17 2.09,-3.8 5.74,-6.15 7.39,-10 1.55,-4.65 -1.11,-8.51 0,-13 1.63,-4.87 5.42,-6.28 7.37,-10.04 2.68,-5.18 -0.44,-10.38 1.21,-14.96 1.69,-4.65 6.42,-7.42 8.04,-12 1.75,-4.86 -1.33,-7.94 0,-18 1.11,-8.56 6.13,-8.26 7.94,-14 1.14,-3.6 -1.06,-9.35 0.72,-14 1.64,-4.31 6.03,-6.85 7.51,-11 1.62,-4.54 -1.7,-8.71 0.92,-14 2.04,-4.09 6.1,-6.22 7.38,-11 1.49,-5.41 -1.74,-11.91 0,-19 2.16,-8.96 8.25,-7.5 8.45,-18 0.05,-3.14 -0.38,-7.16 1.02,-10 1.58,-3.19 5.39,-5.86 6.69,-9.72 l 0.72,-13.28 c 1.41,-5.14 5.63,-6.45 7.57,-11.04 1.79,-4.26 -0.14,-11.68 0,-16.96 0.31,-10.27 5.87,-9.55 8.46,-16 1.46,-4.5 -1.3,-8.06 0,-13 1.8,-5.31 6.4,-7.77 7.76,-12 1.52,-3.68 -0.03,-9.06 0,-13 -0.67,-12.7 5.12,-12.85 7.76,-18.04 1.39,-2.71 0.98,-6.92 1.02,-9.96 0.15,-10.99 4.98,-9.5 7.52,-16 1.41,-3.63 -0.41,-9.72 1.22,-14 1.64,-4.31 5.91,-6.73 7.5,-11 1.6,-4.18 -1.19,-13.52 0,-20 1.48,-8.21 9.33,-8.08 8.55,-18 -0.17,-2.81 -1.05,-5.17 0,-8 1.44,-4.15 5.83,-6.69 7.47,-11 1.81,-4.76 -0.66,-9.45 0.92,-14 1.73,-4.98 6.22,-7.26 7.75,-12 1.3,-4.02 -0.44,-7.99 -0.75,-12 -0.89,-11.85 6.41,-13.45 8.78,-20 1.55,-4.32 -1.1,-9.06 0.78,-14 1.64,-4.31 6.03,-6.85 7.51,-11 1.62,-4.54 -1.7,-8.71 0.92,-14 1.81,-3.63 5.59,-6.03 7.29,-10 1.81,-5.29 -2.01,-13.97 0,-21 1.89,-5.44 6.39,-7.75 7.94,-12 1.74,-4.77 -1.32,-9.57 0.79,-14 1.54,-3.24 5.23,-5.87 6.79,-9 1.39,-2.79 0.98,-6.9 1.02,-10 0.17,-11.78 5.94,-9.12 8.54,-17 1.19,-4.52 -2.07,-15.05 0,-21 1.95,-4.61 6.8,-7.12 8.02,-12 1.13,-4.57 -1.99,-8.32 0.89,-13.99 2.09,-4.09 5.36,-5.38 7.06,-9.05 1.67,-4.85 -1.28,-9.69 0,-13.96 1.87,-4.55 6.67,-6.86 8.18,-12 1.42,-5.67 -2.2,-12.63 0,-20 1.82,-5.46 5.52,-7.42 7.29,-11 2.1,-4.24 0.06,-10.56 1.76,-15 1.64,-4.31 5.96,-6.78 7.56,-11 1.33,-3.72 -1.29,-13.49 0,-20 1.41,-6.69 6.79,-8.36 7.93,-14 1.15,-3.13 0.08,-6.79 0,-10 v -17 c -0.18,-4.17 1.36,-10.48 0,-14 -1.85,-4.99 -6.59,-6.67 -7.78,-13 -1.4,-6.3 0.88,-15.89 0,-19 -1.11,-4.88 -5.96,-7.39 -7.71,-12 -1.37,-3.59 -0.27,-9.85 -1.05,-13 -1.19,-4.77 -5.96,-7.34 -7.88,-12 -1.23,-4.06 1.02,-8.37 0,-13 -1.42,-4.34 -4.81,-6.37 -6.96,-10 -1.83,-3.11 -1.95,-6.49 -1.63,-10 -0.03,-3.94 1.52,-9.32 0,-13 -1.4,-4.32 -6.26,-6.96 -7.83,-12 -1.19,-4.58 1.51,-8.55 0,-13 -1.69,-4.22 -6.02,-6.71 -7.65,-11 -1.93,-5.07 1.13,-9.22 -1.07,-14 -1.54,-3.35 -4.87,-5.74 -6.5,-9 -1.58,-3.19 -1.11,-7.49 -1.17,-11 -0.21,-11.29 -7.43,-8.47 -8.56,-19 -1.05,-6.07 1.39,-12.38 0,-17 -0.92,-4.69 -5.54,-7.19 -7.43,-12 -2.06,-5.25 1.14,-8.97 -0.75,-14 -1.56,-4.14 -5.34,-5.96 -7.17,-10.04 -2.46,-5.48 0.76,-9.47 -0.84,-13.96 -1.48,-4.15 -5.88,-6.7 -7.51,-11 -1.97,-5.18 1.24,-9.76 -0.93,-13.94 -3.76,-7.27 -12.77,-2.27 -15.92,-10.1 -1.35,-3.38 -0.66,-7.83 1.04,-10.96 1.16,-2.13 3.77,-4.59 3.74,-7 -0.04,-2.65 -2.94,-4.81 -4.08,-8 -1.25,-3.54 0.07,-9.58 -1.19,-13 -1.44,-3.94 -5.58,-6.4 -7.39,-11 -2.06,-5.25 1.14,-8.95 -0.75,-14 -1.29,-3.44 -4.2,-5.46 -5.95,-9 -1.53,-3.09 -1.41,-6.9 -3.96,-9.49 -3.39,-3.46 -9.45,-1.82 -12.61,-5.21 -2.09,-2.24 -1.74,-6.42 -1.55,-9.3 v -22 c -0.8,-5.69 -4.78,-6.72 -7.24,-13 l -2.26,-7 -5.38,-8 c -1.5,-3.05 -1.18,-5.6 -3.16,-9 l -4.84,-7 c -1.7,-3.45 -1.24,-6.84 -4.01,-11 -3.6,-5.42 -8.75,-7.32 -11.89,-13 l -3.53,-9 c -1.66,-3.17 -4.09,-5.28 -5.66,-9 l -2.39,-8 -5.52,-8 -2.76,-8 -4.71,-7 c -1.99,-3.44 -1.91,-6.11 -3.27,-9 l -5.3,-8 -3.25,-9 c -1.59,-2.97 -3.75,-4.43 -5.37,-8 -1.43,-3.15 -1.42,-6.97 -4.08,-9.49 -2.38,-2.26 -5.7,-2.27 -8.57,-3.5 -4.28,-1.84 -6.46,-4.96 -10,-6.07 -3.17,-1.38 -11.71,0.05 -16,0 H 169 c -4.98,0.04 -11.71,-1.68 -16,0 -6.55,2.74 -6.44,8.38 -15,8.96 -8.41,0.58 -8.57,-4.26 -13.13,-8.69 -2.18,-2.13 -5.4,-3.69 -6.85,-6.31 -0.83,-1.52 -0.97,-3.21 -0.99,-4.9 -0.11,-9.35 5.99,-9.4 8.99,-16.01 1.66,-4.04 0.04,-9.46 0,-13.99 v -81 c 0.03,-4.29 1.61,-10.31 0,-14 -1.45,-3.91 -4.78,-5.73 -6.57,-9.09 -1.64,-3.1 -1.44,-6.52 -1.32,-9.91 v -26 c -0.09,-3.07 0.84,-8.61 0,-11 -1.43,-6.96 -8.23,-7.29 -9.04,-19 -0.3,-4.34 0.26,-9.27 2.63,-13 1.97,-3.1 5.14,-5.43 6.28,-9 0.87,-2.36 0.01,-9.76 0,-13 V 237 104 c 0.04,-2.92 0.76,-7.45 0,-10 -1.47,-4.09 -5.41,-6.66 -7.35,-11 -2.63,-5.85 -2.34,-19.27 3.46,-23.15 3.11,-2.08 7.3,-1.84 10.89,-1.69 h 391 c 4.19,-0.15 13.03,1.21 16,0 4.21,-0.93 5.8,-4.1 9.09,-6.16 3.32,-2.08 6.17,-1.98 9.91,-2 h 4 c 10.79,0.13 12.95,3.75 13,14 v 4 c -0.04,3.36 -0.07,6 -1.85,9 -3.38,5.69 -7.59,6.05 -6.98,14 l 0.83,11 v 210 c -0.01,3.66 0.25,7.63 -1.85,10.83 -1.97,2.99 -6.45,5.48 -7.02,9.17 -0.75,4.87 5.52,7.71 7.9,12.01 1.98,4.32 -0.21,7.74 0,11.99 0.81,6.53 10.34,14.18 15.01,19 l 25.79,25.72 c 3.23,3.14 8.18,9.02 12.17,10.54 2.67,1.02 9.86,0.78 13,0.74 9.88,-0.14 8.22,-3.27 15,-6.7 3.49,-1.77 7.51,-1.7 10.96,-4.02 l 14.83,-13.94 c 3.31,-3.12 4.69,-7.72 9.23,-9.45 8.66,-3.3 14.36,5.76 18.07,7.8 2.77,1.52 5.86,1.3 8.91,1.31 h 499 129 c 12.75,-0.03 8.94,-3.77 17,-7.69 3.19,-1.54 7.5,-1.35 11,-1.31 14.83,0.18 14.16,6.83 14,19 -0.16,11.3 -5.34,9.51 -8.04,17 -1.24,3.17 0.03,10.88 0,15 v 25 c -0.13,12.19 -5.51,9.92 -8.03,17 -1.52,3.47 0.06,12.42 0,17 v 204 37 c 0.02,4.1 -1.41,10.59 -0.5,14 1.13,4.22 7.68,10.83 11.57,12.9 3.54,1.46 10.64,0.11 15,0 h 18 c 12.21,0.27 9.96,5.69 17,8.19 3.11,1.35 11.77,-0.08 16,0 h 47 c 3.02,-0.09 6.22,-0.3 9,1.08 3.65,1.83 6.03,5.59 10,6.92 3.49,1.5 12.4,-0.08 17,0 h 68 c 3.96,-0.04 10.85,1.36 14,0.6 4.04,-0.99 5.75,-4.05 10,-6.12 3.68,-1.79 7.11,-1.69 11,-4.27 l 33,-32.3 38.77,-39 c 5,-6.1 1.89,-9.22 7.62,-15.58 L 1721,653 l 48,-48 c 3.11,-3.11 11.18,-10.76 13.15,-14 2.34,-3.85 2.13,-8.43 5.5,-12.91 l 9.93,-10.09 c 4.34,-5.74 2.63,-10.11 5.27,-13.85 2.52,-3.57 11.03,-4.28 15.15,-3.97 11.6,0.89 11.67,6.74 18,8.87 2.76,1.23 11.15,-0.04 15,0 h 602 141 c 4.21,-0.04 11.68,1.27 14.99,0 6.03,-2.49 7.39,-9.72 17.01,-8.71 9.6,1 9.99,7.78 9.88,15.66 v 153 c 0.11,4.45 -1.28,12.62 0,16 1.26,4.76 4.64,6.12 6.67,10.04 1.64,3.17 1.44,6.51 1.31,9.96 v 140 c 0.1,3.52 -1.03,9.12 0,12 0.82,4.18 4.02,6.4 6.05,10 l 3.39,9 5.85,8 c 3.55,6.22 -1.53,11.34 2.59,18 2.24,3.63 13.46,14.6 17.26,16.55 3.68,1.89 7.13,1.5 10.96,4.15 l 26.08,25.98 c 6.56,5.36 9.59,3.19 14.95,6.97 l 27.05,26.64 c 6.62,5.08 9.11,2.34 14.96,6.99 l 26,25.5 c 5.94,4.89 9.71,2.95 14.72,6.87 l 26.28,26.12 c 5.64,4.63 9.24,2.69 14.96,6.88 l 26.04,25.96 c 5.75,4.43 9.16,2.77 13.96,6.09 l 27.04,26.91 c 5.31,4.11 7.99,2.75 12,4.7 6.66,3.24 4.98,6.55 15,6.69 2.76,0.03 7.51,-0.26 9.96,0.74 5.48,2.23 6.63,10.31 4.53,15.26 -1.86,4.37 -6.11,6.65 -7.63,11 -1.41,3.41 0.25,11.4 0,16 -0.17,10.76 -5.71,9.79 -7.95,16.01 -1.5,3.42 0.08,12.45 0,16.99 v 193 c 0.08,3.34 0.27,6.91 -1.22,10 -1.84,3.78 -5.47,6.12 -6.78,10 -1.76,4.17 0.03,11.25 0,16 v 36 c 0.04,4.28 -1.33,10.34 -0.68,14 1.29,7.32 7.88,7.78 8.68,17 0.28,3.24 0.27,9.02 -0.92,12 -1.59,4 -4.91,6.28 -4.11,10 0.77,3.6 4.42,5.04 4.79,12 v 24 c 1.04,4.78 4.89,6.57 6.88,10.17 1.61,2.92 1.51,6.58 1.31,9.83 0.03,4.06 -1.49,9.37 0,13 1.36,3.93 5.15,6.36 6.97,10 1.38,2.78 1.17,5.98 1.12,9 v 22 c 2.08,5.78 6.97,6.59 8.58,15 l -0.88,24 c 0.84,6.82 6.65,8.08 8.51,15 1.88,6.16 -0.51,18.11 0,25 0.48,10.33 8.49,8.58 8.82,20 l -0.55,15 c 1.24,4.73 5.57,7.06 7.56,12 1.47,3.63 1.06,12.75 0.88,17 0.08,3.82 -1.29,9.86 0,13 2.53,7.18 7.97,5.59 8.07,17 v 15 c -0.24,3.13 -1.14,5.91 0,9 1.82,5.2 6.84,7.05 8.45,14 1.73,6.82 -1.57,21.95 0,27 1.59,5.62 6.91,7.37 8.31,14 1.4,7.07 -2.03,14.67 0,19.99 1.55,3.89 4.85,5.21 6.85,9.05 1.95,3.74 1.46,9.73 1.32,13.96 0.12,4.79 -1.58,14.32 0,17.96 2.4,6.38 7.96,4.78 8.13,17.04 l -0.56,22 c 1.22,4.88 6.07,7.39 7.82,12 1.13,2.95 0.78,14.23 0.69,18 0,3.63 -1.15,8.9 0,12 2.14,6.12 8.03,7.14 8.86,17 l -0.81,18 c 0.03,15.95 9.79,10.33 8.82,26 -0.16,4.38 -1.75,9.71 0,13.99 1.31,3.57 4.22,5.01 6.17,8.1 2.24,3.52 2,6.93 1.88,10.91 v 21 c 2.82,7.84 8.06,4.98 8.13,18 l -0.56,22 c 1.22,4.88 6.07,7.39 7.82,12 1.13,2.95 0.78,14.23 0.9,18 -0.21,4.24 -1.63,9.22 0,13 2.61,5.19 8.12,7.12 8.66,16 0.46,5.29 -2,12.06 0,16.99 1.45,3.94 4.61,5.01 6.61,9.05 2.05,4.13 1.62,11.3 1.32,15.96 0.19,4.41 -1.4,11.2 0,14.99 1.09,4.37 4.63,5.75 6.8,10.02 2,3.94 1.5,11.46 1.32,15.99 0.07,4.49 -1.6,11.14 0,15 1.37,3.97 5.13,6.35 6.96,10 1.38,2.78 1.17,5.98 1.17,9 l -0.56,21 c 1.14,4.57 5.38,6.98 7.39,11 2.67,5.36 1.2,12.38 0.65,18 -0.84,8.62 6.22,10.08 8.52,17.01 1.8,5.38 -0.03,16.36 0,22.99 0.06,12.2 3.85,8.95 7.55,16.04 1.64,3.15 1.44,6.52 1.25,9.96 v 21 c 1.01,3.32 4.2,5.65 6.19,9 2.08,3.49 1.99,6.11 2.01,10 l -0.57,21 c 2.01,7.67 8.41,6.18 8.52,18 0.1,4.27 -1.2,12.9 0,16 2.25,6.25 9.68,8.46 8.79,20 -0.29,5.26 -1.98,17.36 0,22 1.87,4.78 9.51,10.63 12.98,15 4.14,5.21 4.61,16.93 1.63,22.9 -4.44,8.89 -14.17,2.25 -20.35,5.27 l -8,5.53 c -3.87,1.96 -7.2,1.38 -12,4.87 l -11.09,10.44 c -3.17,2.11 -5.91,2.28 -8.91,3.63 l -9,5.68 -9,2.99 c -4.51,2.25 -8.9,8.16 -13,11.41 -5.17,4.12 -8.7,2.87 -13.91,6.41 -4.32,2.94 -7.81,8.78 -13.09,11.78 l -9,3.25 c -3.26,1.67 -5.14,4.23 -9,5.84 -3.31,1.38 -5.04,0.73 -9,3.15 -5.79,3.53 -8.42,8.48 -12.09,11.2 -4.39,3.26 -8.73,2.68 -12.91,5.37 -4.78,3.08 -8.16,8.62 -12.09,11.31 -5.96,4.09 -8.96,1.63 -15.89,8.07 -2.51,2.33 -4.58,4.6 -5.63,7.9 -0.91,2.86 -0.82,7.05 -3.11,9.26 -2.22,2.14 -5.47,1.39 -9.28,2.89 -3.85,1.51 -8.03,5.43 -10.3,8.85 -2.54,3.84 -2.23,6.59 -3.69,10 -1.69,3.95 -4.18,5.73 -5.85,9 l -3.25,9 c -3.17,5.49 -9.4,7.92 -12.6,14 l -2.88,9 -5.35,8 -3.24,9 -4.76,7 -3.93,10 c -2.69,4.43 -9.81,9.82 -12.41,14 -2.22,3.56 -1.38,5.89 -3.42,10 l -5.2,8 -3.39,9 -4.65,7 -4.08,10 c -3.47,5.68 -8.31,7.29 -11.86,13 -2.27,3.67 -1.92,5.59 -3.28,9 -1.54,3.84 -3.69,5.61 -5.42,9 l -3.97,9.91 c -2.63,4.3 -8.63,8.36 -11.77,13.09 -2.72,4.11 -2.22,7.19 -4.15,11 l -5.24,8 c -1.49,3.06 -1.16,5.34 -3.31,9 l -4.84,7 -3.24,9 -4.75,7 c -3.39,6.98 2.15,16.47 -1.87,24.89 -2.49,5.22 -8.22,4.17 -12.3,5.83 -3.64,1.48 -7.98,5.89 -9.91,9.28 -1.84,3.22 -1.84,6.11 -3.08,9 -1.69,3.95 -4.18,5.73 -5.85,9 l -2.73,8 -5.27,8 -2.73,8 -5.3,8 -3.25,9 -5.2,8 -3.13,8.96 -5.1,7.13 -2.9,8.91 -5.39,8 -2.73,8 -4.71,7 c -2.05,3.41 -1.74,5.76 -3.29,9 l -5.3,8 -3.23,9 -5.63,9 c -1.46,3.22 -1.17,5.42 -3.27,9 l -4.83,7 -2.17,7 -5.7,9 -3.38,9 -4.76,7 -2.73,8 -5.3,8 -3.09,8.96 c -1.48,3.22 -3.21,4.42 -4.83,7.13 -2.14,3.58 -2.17,6.6 -3.77,9.91 -2.09,4.3 -4.01,4.9 -7.75,13 -0.97,2.12 -3.55,6.21 -1.88,8.4 1.67,2.21 9.48,1.63 12.19,1.6 10.39,-0.15 8.74,-3.92 15.09,-7.31 3.63,-1.95 7.91,-1.73 11.91,-1.69 10.1,0.12 13.87,2.59 14,13 0.04,3.87 0.36,9.54 -1.31,13 -2.01,4.15 -6.06,6.43 -6.9,11 v 15 108 c 0.2,4.6 -1.38,13.51 0,17 1.45,3.97 5.21,6.35 7.04,10 1.38,2.78 1.17,5.98 1.08,9 v 203 c 0.08,4.25 -1.35,12.86 0,16 2.26,6.45 8.02,6.4 8.91,18 0.2,2.71 -0.26,5.34 -0.74,8 -0.44,2.39 -0.82,4.73 -2.59,6.57 -4.17,4.34 -18.33,4.09 -23.49,1.29 -3.69,-2 -6.08,-5.55 -9.72,-6.78 -1.74,-0.45 -6.22,-0.1 -8.28,0 -3.23,-0.06 -8.15,-0.48 -11,0.94 -3.91,1.95 -5.42,5.66 -11,7.07 -5.29,1.7 -13.04,-0.08 -19,0 h -52 c -12.79,-0.06 -9.15,3.81 -17,7.74 -2.77,1.38 -5.99,1.17 -9,1.08 h -54 c -4.6,0.08 -13.51,-1.5 -17,0 -3.97,1.33 -6.35,5.09 -10,6.92 -2.78,1.38 -5.98,1.17 -9,1.08 h -55 c -4.25,0.08 -12.86,-1.35 -16,0 -3.93,1.31 -6.36,5.1 -10,6.92 -2.78,1.38 -5.98,1.17 -9,1.17 h -49 l -12,-0.74 c -5.9,0.82 -7.69,6.16 -14,8.84 -5.95,1.83 -12.68,-0.09 -19,0 h -40 -9 c -3.25,0.03 -7.99,-0.77 -11,0 -4.29,2.11 -6.14,6.26 -12,8.1 l -25,0.8 h -30 l -21,-0.85 c -5.24,0.8 -6.83,4.52 -11,7 -3.52,2.08 -7.08,1.84 -11,1.85 h -54 l -13,-0.89 c -9.37,0.93 -7.37,8.71 -20,8.89 h -24 l -15,-0.57 c -4.31,1.13 -6.46,4.64 -10,6.83 -2.65,1.64 -7.87,2.56 -11,2.56 -3.13,0 -8.35,-0.92 -11,-2.56 -3.14,-1.94 -5.39,-5.16 -9,-6.32 -3.14,-1.38 -11.75,0.05 -16,0 h -54 c -4.51,0 -9.96,-1.58 -13.99,0 -4.07,1.73 -5.6,4.91 -9.05,6.75 -2.85,1.51 -5.84,1.3 -8.96,1.28 h -353 c -3.68,0.02 -11.24,-1.05 -14,0 -4.76,1.64 -6.93,6.22 -12,7.6 -5.52,1.51 -11.12,-1.42 -17,2.86 l -35.17,34.92 c -5.41,4.18 -9.14,2.21 -14.83,6.88 l -12,11.77 -30,30 -16,15.87 c -6.6,5.74 -9.3,3.01 -15,7.43 l -30.16,29.7 -29.84,29.58 c -4.46,3.35 -7.44,2.89 -11,4.72 -6.41,3.29 -11.33,9.54 -12,16.7 z M 2106.61,973 c 0.39,6.35 5.8,9.34 6.81,17 0.93,4.18 -0.24,6.41 0,10 l 0.58,13 -0.96,14 c 0.25,6.46 1.94,9.26 -0.89,16 -1.96,4.67 -5.47,6.64 -5.74,11 l 1.48,9 -0.88,11 0.86,14 c -0.06,4.69 -1.75,4.98 -1.87,12 v 13 l -0.82,15 c -0.19,4.47 1.07,14.96 0,18 -1.35,5.13 -6.54,9.78 -6.87,15 -0.2,3.17 1.65,5.17 1.69,13 v 29 l -3,25 v 18 c 0.02,4.51 1.24,10.09 0.53,14 -1.3,7.13 -5.08,8.45 -6.79,13 -1.39,3.69 -0.2,9.38 -1.17,13 -1.12,4.16 -4.8,7.18 -6.8,11 -2.97,5.65 -2.52,16.34 3.34,20.07 1.93,1.23 4.64,1.68 6.89,1.84 11.84,0.83 13.7,-5.54 20,-8.06 2.51,-1 5.34,-0.84 8,-0.85 l 62,0.78 c 4.18,0.21 11.93,-0.99 15,0 4.95,1.01 8.78,5.12 13,6.52 4.71,1.57 10.22,-0.3 15.99,2.35 3.57,1.64 4.46,3.69 7.18,5.51 l 9.83,4.69 12,10.21 c 5.5,3.92 7.87,3.16 13,6.74 l 13,10.59 c 4.57,3 7.24,2.75 12,6.15 l 12,9.82 c 4.32,2.97 7.17,2.73 12,6.18 l 13,10.81 c 4.06,2.79 7.34,2.69 9.77,4.5 6.84,5.08 0.33,21.7 15.23,22.13 6.81,0.21 12.33,-0.4 14.39,-7.99 l 1.08,-25.99 c 1.41,-7.31 4.73,-7.97 7.1,-13 l 2.87,-8 c 1.74,-3.42 3.79,-5.01 5.43,-9 1.65,-4 1.51,-7.2 4.55,-10.91 5.51,-6.73 14.27,-7.47 16.94,-10.52 3.02,-3.45 3.56,-15.31 1.06,-19.09 -4.19,-6.34 -11.02,-1.23 -22.42,-3.97 -8.29,-2 -10.27,-5.35 -16,-8.25 l -8,-3.17 -8,-4.81 -7,-2.63 -10,-6.01 -7,-2.62 -8,-4.09 -7,-2.49 -8,-5.22 c -3.8,-2.16 -5.84,-1.85 -9,-3.29 l -9,-5.63 -8,-2.86 -8,-5.15 -8,-2.85 -8,-5.28 -8,-2.73 -9,-6.13 -8,-2.98 -9,-5.18 -7,-2.21 -9,-5.63 c -3.07,-1.46 -5.66,-1.26 -8.99,-3.31 L 2181.18,1199 c -2.78,-3.14 -6.88,-8.79 -7.37,-13 v -12 l -1.73,-16 0.87,-11 c -0.44,-8.83 -6.93,-9.07 -7.75,-21 -0.25,-3.72 -0.24,-12.65 0.91,-16 1.96,-5.73 5.67,-8.85 6.54,-14 0.98,-5.81 -3.33,-11.92 3,-21 1.68,-2.42 14.21,-16.96 16.35,-18.58 4.52,-3.44 7.88,-2.72 10.42,-5.72 3.2,-3.79 1,-8.94 6.4,-16.7 3.13,-4.5 6.76,-9.47 12.18,-11.3 5.97,-2.02 13.48,1.98 16.74,-6.72 1.74,-4.65 0.97,-12.97 -2.97,-16.33 -4.05,-3.47 -12.97,-4.43 -21.3,-14.65 -3.39,-4.15 -5.51,-7.74 -6.65,-13 -1.13,-5.21 -0.55,-12.4 -6.29,-15.17 -8.15,-3.93 -10.44,8.42 -21.53,9.06 l -14,-0.5 c -4.24,-0.67 -4.91,-2.29 -14,-2.9 -4.51,-0.27 -7.17,1.08 -12,0 -8.23,-1.89 -12.74,-7.92 -25,-6.06 -6.9,2.8 -7.81,9.74 -7.39,16.57 z M 1212.9,2606 v -11 c -0.16,-5.3 -2.38,-9.91 -1.47,-14 1.26,-5.63 6.56,-8.52 8.09,-16 0.84,-4.1 0.54,-10.23 -2.94,-13.11 -1.59,-1.32 -3.58,-1.79 -5.58,-2.03 -11.35,-1.4 -14.89,7.12 -22,9.24 -2.95,1.16 -10.97,-0.09 -15,0 h -79 l -9.99,0.54 -23.01,-0.64 -13,-0.92 -12,0.92 c -2.87,0.01 -6.27,0.2 -8.96,-0.84 -2.71,-1.05 -4.98,-3.57 -8.03,-3.6 -3.62,-0.04 -4.15,2.9 -7.14,3.56 -2.21,0.48 -4.93,-0.78 -7.87,-0.78 -3.38,0.01 -6.35,1.65 -15,1.66 h -38 c -2.69,-0.01 -5.41,0.19 -7.91,-0.98 -2.08,-0.97 -3.82,-3.16 -6.09,-3.16 -2.27,0 -4.01,2.19 -6.09,3.16 -2.5,1.17 -5.22,0.97 -7.91,0.98 H 821 l -14,-1 -16,1.04 H 613 473 c -4.76,-0.03 -12.13,1.4 -16,0 -8.41,-2.7 -8.6,-9.64 -21,-9 -8.46,0.44 -10.36,5.25 -9.96,12.96 0.44,8.38 5.46,10.6 7.91,17 1.33,3.89 0.06,10.42 0,15 v 41 l -0.95,16 1,19 -0.87,10 v 18 c -0.07,4.7 1.58,10.8 0,15 -1.83,5.98 -10.26,12.03 -7.6,23 0.57,2.36 1.67,4.79 3.69,6.26 6.34,4.62 10.98,-3.51 15.78,-6.12 3.97,-2.16 8.62,-2.13 13,-2.14 h 51 c 3.03,0 6.21,-0.21 9,1.17 5.02,2.49 8.1,8.64 17,8.65 8.47,0.01 13.55,-5.28 12.66,-13.82 -1.01,-9.67 -8.68,-11.31 -10.25,-19 l 0.59,-14 v -32 l 1,-18 c -0.15,-12.77 -4.31,-16.93 6.18,-27.91 2.92,-3.05 8.57,-7.24 12.82,-7.85 l 13,0.72 11,-0.96 h 116 l 13,0.68 c 2.42,-0.18 4.47,-0.79 7,-0.54 6.68,0.68 14.14,7.38 17.53,12.86 1.81,2.92 3.75,6.46 3.33,10 -1.16,9.79 -11.55,13.52 -10.76,25 0.63,9.28 6.75,10.98 8.98,18 1.29,3.75 0.26,6.29 0,10 v 15 c -0.05,5.45 2.08,14.61 0.54,19 -2.18,6.22 -14.82,16.15 -6.9,26.87 1.86,2.52 4.26,3.53 7.28,3.94 12.72,1.74 15.03,-7.87 24,-9.92 3.65,-0.84 7.23,0.78 11,0.95 h 20.2 l 13.8,0.98 19,-1.82 h 67 20 c 5.45,0.07 13.33,2.84 18,0 13.28925,8.8973 5.63041,-1.6251 14.96,1.35 4.02,1.4 4.86,6.8 11.04,8.21 4.07,0.93 8.97,-0.7 13,-1.41 h 14 c 4.88,-0.09 8.88,0.48 13,3.35 3.7,2.59 6.85,7.11 12,6.03 5.8,-1.23 8.76,-8.78 17,-9.68 l 18,1.14 13,-0.84 c 6.8,0.96 4.13,3.28 16,0 0.46,1.53 0.86,3.2 1.71,4.74 5.73,10.44 15.2,-3.02 18.38,-4.31 3.93,-1.58 6.33,1.71 10.91,1.15 4.91,-0.6 7.4,-4.87 11,-7.13 2.99,-1.88 5.63,-1.59 9,-1.6 l 27,-0.68 27,0.68 c 4.54,-0.02 9.79,-0.82 14,1.13 4.63,2.15 8.06,6.98 15,7.67 8.84,0.89 14.84,-4.85 13.49,-13.8 -1.14,-7.6 -5.13,-6.8 -8.57,-11.21 -3.03,-3.88 -2.91,-7.17 -2.92,-11.79 v -66 -32 c 6.45,-2.2 4.34,-6.62 3.9,-12 z m -277.2,47.92 c 3.94,-2.38 1.43,-9.5 6.06,-14.79 3.26,-3.73 5.98,-2.85 12.15,-9.17 l 7.39,-8.87 7.7,-7.13 c 6.72,-6.39 9.95,-9.27 19.72,-8.77 11.54,0.6 10.43,5.03 16.37,8.37 4.21,2.37 13.17,2.95 17.9,9.74 5.69,8.14 -4.55,20.57 9.01,23.51 1.54,0.16 4.41,0.24 6,0 14.63,-0.69 7.76,-15.14 11.17,-21.8 2.09,-4.07 14.77,-13.27 18.6,-17.31 4.1,-4.31 2.07,-6.74 3.99,-9.27 1.52,-2 4.81,-2.63 7.15,-2.1 3.73,0.83 7.68,5.97 10.26,8.67 3.69,3.87 5.7,4.95 9.83,8 2.57,-2 4.05,0.02 5.86,2.13 l 11.18,12.87 c 9.74,10.13 9.65,6.81 13.57,10.36 4.68,4.25 5.74,8.99 9.5,12.25 3.04,2.64 6.15,3.05 8.31,5.66 L 1158,2678 c -7.23,6.06 -7.91,2.72 -12.83,7.23 l -10.18,11.77 c -7.21,7.3 -11.64,10.23 -19.99,15.7 -3.39,2.22 -8.14,6.58 -12,7.03 -6.15,0.73 -8.6,-4.83 -14,-6.3 -4.71,-1.28 -10.65,1.07 -15.83,-2.94 L 1059,2696.01 c -3.33,-3.25 -8.02,-6.65 -9.76,-11.01 -2.43,-6.1 2.65,-12.98 -3.47,-18.71 -1.3,-1.22 -2.94,-2.15 -4.77,-2.15 -4.74,0 -6.16,5.07 -8.49,7.37 -3.04,2.99 -6.41,2.44 -8.12,7.53 -1.26,3.77 -0.59,9.21 -3.82,11.97 -2.93,2.49 -7.47,2.3 -11.18,6.21 -3.33,3.52 -5.41,10.86 -12.39,14.47 -4.73,2.44 -8.69,0.29 -14,2.3 -4.45,1.69 -8.23,5.77 -11.96,5.36 -5.7,-0.63 -4.43,-7.88 -8.46,-11.72 -5.54,-5.28 -18.15,-7.58 -22.06,-12.67 -2.82,-3.68 -2.22,-10.74 -3.52,-15.96 l -6,1 -3,4 c -5.63,-14.66 -3.69,-16.3 0,-30.08 2.05,0.27 5.93,0.94 7.7,0 z M 868.6,2615 c 0.85,4.65 -0.78,6.89 0,12 0.12,4.42 1.75,10.88 0,15 -1.49,4.71 -5.46,7.11 -7.1,10.83 -0.99,2.24 -0.57,4.81 -0.52,7.18 0.07,4.02 0.44,8.33 -3.21,10.98 -4.94,3.6 -12.22,1.5 -17.77,0.98 -5.88,-0.07 -20.78,3.26 -29.98,0 -10.4,-4.18 -5.2,-14.4 -6.99,-18.97 -1.65,-4.19 -6.09,-6.46 -8.26,-11.01 -1.95,-4.07 -1.08,-5.99 -1.22,-9.99 -0.41,-11.9 -0.56,-14.89 10.45,-22.25 10.05,-6.72 18.14,-3.17 29,-3.79 7.6,-0.44 7.58,-4.66 13.1,-8.11 10.27,-2.83 20.92,7.3 22.5,17.15 z m 204.4,140 1,1 v -1 z m -810.32,922 c 1.97,3.97 5.42,6.8 7.17,10.91 0.7,2.83 0.15,8.83 0,12.09 v 51 c 0.15,6.41 1.62,15.09 -3.96,19.49 -4.69,3.69 -9.63,2.18 -14.89,1.68 h -17 c -4.74,-0.11 -10.7,1.51 -15,0 -5.06,-1.39 -8.13,-5.89 -14,-8.04 -9.87,-3.61 -18.66,2.03 -17.9,12.87 0.61,8.79 6.22,10.83 8.83,18 1.35,3.98 0.08,10.36 0,15 v 147 c 0.12,4.34 1.46,8.89 0,13 -2.02,5.17 -14.83,17.58 -6.28,27.77 2.08,2.49 4.26,3 7.35,3.19 12.94,0.78 13.69,-5.63 21,-8.24 2.4,-0.85 5.46,-0.72 8,-0.72 h 93 l 12,0.97 18,-0.97 24,0.54 c 4.08,-0.11 7.85,-1.17 12,0 8.35,2.68 8.18,9.19 22,8.42 2.72,-0.15 5.34,-0.59 7.35,-2.61 2.68,-2.68 2.81,-6.2 0.91,-9.35 -2.14,-3.54 -5.53,-5.36 -7.36,-10 -1.53,-4.52 -0.29,-7.56 0,-12 v -18 c 0.04,-4.39 -1.44,-10.12 0,-14 1.45,-5.55 15.26,-18.3 6.4,-28.61 -8.65,-10.08 -24.51,3.91 -28.26,4.33 -5.2,0.59 -4.64,-6.46 -12.04,-7.57 l -14,0.85 -21,-0.57 c -4.69,-0.22 -9.25,1.41 -14,0 -5.34,-1.75 -8.58,-6.42 -12.42,-10.11 -2.62,-2.5 -7.29,-5.16 -8.98,-7.5 -2.1,-2.91 -1.26,-5.62 -2.49,-8.82 -1.53,-4 -4.47,-5.78 -6.09,-9 l -2.17,-7.99 c -1.89,-4.71 -5.05,-5.6 -6.83,-9.05 -1.21,-2.35 -1.01,-5.37 -1.02,-7.96 l -0.85,-18 v -10 c 0.02,-2.82 -0.23,-14.81 0.88,-16.62 1.48,-2.45 5,-3.42 6.8,-6.56 2.3,-4.04 -0.01,-9.63 3.67,-13.38 2.75,-2.78 12.52,-6.47 16.5,-8.19 6.04,-2.6 9.56,-6.52 14,-7.39 2.97,-1.07 10.91,0.13 15,0 h 35 c 5.66,0.13 14.42,-2.1 18.96,0.88 7.95,5.21 4.65,15.48 15.04,15.52 1.43,0 3.61,-0.37 5,-0.76 1.69,-0.46 3.39,-1.09 4.78,-2.2 1.56,-1.25 2.31,-2.52 3.11,-4.32 5.93,-13.21 -3.39,-15.03 -6.96,-23.98 -1.21,-3.82 0.06,-10.47 0,-15 v -32 c 0.03,-3.25 -0.89,-8.35 0,-11 1.14,-7.56 8.52,-10.23 9.03,-20 0.33,-6.34 -1.65,-14.61 -9.96,-12.68 -4.42,1.02 -6.86,5.35 -11,7.37 -3.96,1.92 -8.76,1.21 -13,1.22 h -26 -21 l -13,-0.88 -12,0.97 h -19 c -14.25,-0.02 -11.08,-4.43 -20,-7.99 -3.64,-1.46 -8.2,-1.16 -12,-0.58 -7.81,3.17 -8.75,12.64 -5.32,19.57 z m 2057.32,167 5,-1 z" />
</svg>
