# Object file exported by CryEdit
# Attention: while import to 3DS Max Unify checkbox for normals must be unchecked.
#
mtllib Solid5011.mtl
#
g
# object Solid5011 cumming...
#
v  118100 189900 9600
v  118100 189900 8000
v  118100 131400 8000
v  118100 131400 9600
v  151600 189900 9600
v  151600 189900 8000
v  118100 189900 8000
v  118100 189900 9600
v  151600 131400 9600
v  151600 131400 8000
v  151600 189900 8000
v  151600 189900 9600
v  118100 131400 9600
v  118100 131400 8000
v  151600 131400 8000
v  151600 131400 9600
v  151600 131400 9600
v  151600 189900 9600
v  118100 189900 9600
v  118100 131400 9600
v  151600 131400 8000
v  118100 131400 8000
v  118100 189900 8000
v  151600 189900 8000
# 24 vertices

vt  -292 -8 0
vt  -292 8 0
vt  293 8 0
vt  293 -8 0
vt  -167 -8 0
vt  -167 8 0
vt  168 8 0
vt  168 -8 0
vt  -293 -8 0
vt  -293 8 0
vt  292 8 0
vt  292 -8 0
vt  -168 -8 0
vt  -168 8 0
vt  167 8 0
vt  167 -8 0
vt  167 293 0
vt  167 -292 0
vt  -168 -292 0
vt  -168 293 0
vt  -167 -293 0
vt  168 -293 0
vt  168 292 0
vt  -167 292 0
# 24 texture vertices

g Solid5011
usemtl Terrain
s 0
f -24/-24 -23/-23 -22/-22
f -24/-24 -22/-22 -21/-21
f -20/-20 -19/-19 -18/-18
f -20/-20 -18/-18 -17/-17
f -16/-16 -15/-15 -14/-14
f -16/-16 -14/-14 -13/-13
f -12/-12 -11/-11 -10/-10
f -12/-12 -10/-10 -9/-9
f -8/-8 -7/-7 -6/-6
f -8/-8 -6/-6 -5/-5
f -4/-4 -3/-3 -2/-2
f -4/-4 -2/-2 -1/-1
# 12 faces

g
