# Object file exported by CryEdit
# Attention: while import to 3DS Max Unify checkbox for normals must be unchecked.
#
mtllib Solid5662.mtl
#
g
# object Solid5662 cumming...
#
v  118100 192200 9600
v  118100 192200 8000
v  118100 189900 8000
v  118100 189900 9600
v  128100 192200 9600
v  128100 192200 8000
v  118100 192200 8000
v  118100 192200 9600
v  128100 189900 9600
v  128100 189900 8000
v  128100 192200 8000
v  128100 192200 9600
v  118100 189900 9600
v  118100 189900 8000
v  128100 189900 8000
v  128100 189900 9600
v  128100 189900 9600
v  128100 192200 9600
v  118100 192200 9600
v  118100 189900 9600
v  128100 189900 8000
v  118100 189900 8000
v  118100 192200 8000
v  128100 192200 8000
# 24 vertices

vt  -11 -8 0
vt  -11 8 0
vt  12 8 0
vt  12 -8 0
vt  -50 -8 0
vt  -50 8 0
vt  50 8 0
vt  50 -8 0
vt  -12 -8 0
vt  -12 8 0
vt  11 8 0
vt  11 -8 0
vt  -50 -8 0
vt  -50 8 0
vt  50 8 0
vt  50 -8 0
vt  50 12 0
vt  50 -11 0
vt  -50 -11 0
vt  -50 12 0
vt  -50 -12 0
vt  50 -12 0
vt  50 11 0
vt  -50 11 0
# 24 texture vertices

g Solid5662
usemtl Terrain
s 0
f -24/-24 -23/-23 -22/-22
f -24/-24 -22/-22 -21/-21
f -20/-20 -19/-19 -18/-18
f -20/-20 -18/-18 -17/-17
f -16/-16 -15/-15 -14/-14
f -16/-16 -14/-14 -13/-13
f -12/-12 -11/-11 -10/-10
f -12/-12 -10/-10 -9/-9
f -8/-8 -7/-7 -6/-6
f -8/-8 -6/-6 -5/-5
f -4/-4 -3/-3 -2/-2
f -4/-4 -2/-2 -1/-1
# 12 faces

g
