# Object file exported by CryEdit
# Attention: while import to 3DS Max Unify checkbox for normals must be unchecked.
#
mtllib Solid28.mtl
#
g
# object Solid28 cumming...
#
v  96900 237600 9600
v  96900 237600 8000
v  96900 192200 8000
v  96900 192200 9600
v  151600 237600 9600
v  151600 237600 8000
v  96900 237600 8000
v  96900 237600 9600
v  151600 192200 9600
v  151600 192200 8000
v  151600 237600 8000
v  151600 237600 9600
v  96900 192200 9600
v  96900 192200 8000
v  151600 192200 8000
v  151600 192200 9600
v  151600 192200 9600
v  151600 237600 9600
v  96900 237600 9600
v  96900 192200 9600
v  151600 192200 8000
v  96900 192200 8000
v  96900 237600 8000
v  151600 237600 8000
# 24 vertices

vt  -227 -8 0
vt  -227 8 0
vt  227 8 0
vt  227 -8 0
vt  -273 -8 0
vt  -273 8 0
vt  274 8 0
vt  274 -8 0
vt  -227 -8 0
vt  -227 8 0
vt  227 8 0
vt  227 -8 0
vt  -274 -8 0
vt  -274 8 0
vt  273 8 0
vt  273 -8 0
vt  273 227 0
vt  273 -227 0
vt  -274 -227 0
vt  -274 227 0
vt  -273 -227 0
vt  274 -227 0
vt  274 227 0
vt  -273 227 0
# 24 texture vertices

g Solid28
usemtl Terrain
s 0
f -24/-24 -23/-23 -22/-22
f -24/-24 -22/-22 -21/-21
f -20/-20 -19/-19 -18/-18
f -20/-20 -18/-18 -17/-17
f -16/-16 -15/-15 -14/-14
f -16/-16 -14/-14 -13/-13
f -12/-12 -11/-11 -10/-10
f -12/-12 -10/-10 -9/-9
f -8/-8 -7/-7 -6/-6
f -8/-8 -6/-6 -5/-5
f -4/-4 -3/-3 -2/-2
f -4/-4 -2/-2 -1/-1
# 12 faces

g
